<?xml version="1.0" ?>

<!-- Uploaded to: SVG Repo, www.svgrepo.com, Generator: SVG Repo Mixer Tools -->
<svg width="20px" height="20px" viewBox="0 0 64 64" id="Layer_1" version="1.1" xml:space="preserve" xmlns="http://www.w3.org/2000/svg" xmlns:xlink="http://www.w3.org/1999/xlink">

<style type="text/css">
	.st0{fill:#B4E6DD;}
	.st1{fill:#80D4C4;}
	.st2{fill:#D2F0EA;}
	.st3{fill:#FFFFFF;}
	.st4{fill:#FBD872;}
	.st5{fill:#DB7767;}
	.st6{fill:#F38E7A;}
	.st7{fill:#F6AF62;}
	.st8{fill:#32A48E;}
	.st9{fill:#A38FD8;}
	.st10{fill:#7C64BD;}
	.st11{fill:#EAA157;}
	.st12{fill:#9681CF;}
	.st13{fill:#F9C46A;}
	.st14{fill:#CE6B61;}
</style>

<g>

<path class="st0" d="M48.7,13.36l-15.73-5.2c-0.63-0.21-1.31-0.21-1.93,0l-15.73,5.2c-1.26,0.42-2.11,1.6-2.11,2.92v19.6   c0,4.1,1.89,7.98,5.12,10.51l11.16,8.73c1.49,1.16,3.57,1.16,5.06,0l11.16-8.73c3.23-2.53,5.12-6.41,5.12-10.51v-19.6   C50.81,14.96,49.96,13.78,48.7,13.36z"/>

<path class="st2" d="M32,52c-0.04,0-0.06-0.02-0.07-0.02l-11.16-8.73c-2.28-1.78-3.58-4.47-3.58-7.36V16.95L32,12.05l14.81,4.9   v18.94c0,2.89-1.31,5.58-3.58,7.36l-11.16,8.74L32,52z"/>

<circle class="st6" cx="32" cy="29.65" r="11.71"/>

<g>

<path class="st3" d="M31.21,34.47c0.25-0.06,0.51-0.11,0.78-0.11c0.29,0,0.56,0.05,0.82,0.12l1.19-10.67    c0.05-0.52,0.07-0.93,0.07-1.22c0-0.91-0.2-1.6-0.59-2.06c-0.4-0.46-0.88-0.69-1.45-0.69c-0.57,0-1.06,0.23-1.47,0.69    c-0.41,0.46-0.61,1.08-0.61,1.84c0,0.32,0.04,0.8,0.11,1.44L31.21,34.47z"/>

<path class="st3" d="M31.98,35.42c-0.56,0-1.04,0.2-1.43,0.59c-0.4,0.4-0.59,0.87-0.59,1.41c0,0.56,0.2,1.04,0.59,1.43    c0.4,0.4,0.87,0.59,1.43,0.59s1.04-0.2,1.43-0.59c0.4-0.4,0.59-0.87,0.59-1.43c0-0.55-0.2-1.02-0.59-1.41    C33.02,35.62,32.54,35.42,31.98,35.42z"/>

</g>

</g>

</svg>