<?xml version="1.0" encoding="UTF-8"?>
<svg width="16px" height="16px" viewBox="0 0 16 16" version="1.1" xmlns="http://www.w3.org/2000/svg" xmlns:xlink="http://www.w3.org/1999/xlink">
    <title>2FA03935-3444-4541-9857-103630598FAC</title>
    <g id="Content-Modules" stroke="none" stroke-width="1" fill="none" fill-rule="evenodd" opacity="0.6">
        <g id="d_Recipe-Card" transform="translate(-1901.000000, -458.000000)">
            <g id="desktop/modules/recipe-card/option-1/with-icons" transform="translate(1824.000000, 202.000000)">
                <g id="key-info" transform="translate(0.000000, 256.000000)">
                    <g id="16x16-difficulty-level-icon" transform="translate(77.000000, 0.000000)">
                        <rect id="Rectangle" fill-opacity="0" fill="#929292" x="0" y="0" width="16" height="16"></rect>
                        <g id="chef" fill="#000000" fill-rule="nonzero">
                            <path d="M12,2 C11.8271547,2 11.6494223,2.01752855 11.4677802,2.04425942 C10.780193,0.830307528 9.49181405,0 7.99998552,0 C6.50815699,0 5.21977805,0.830336489 4.53221979,2.04425942 C4.35057768,2.01752855 4.17284527,2 4,2 C1.79443989,2 0,3.79395804 0,6 C0,7.44140315 0.758309486,8.73632957 2,9.45215487 L2,14.5 C2,15.3271526 2.6728498,16 3.5,16 L12.5,16 C13.3271502,16 14,15.3271526 14,14.5 L14,9.45215487 C15.2416905,8.73632957 16,7.44140315 16,6 C16,3.79395804 14.2055601,2 12,2 Z M12.4999719,15.0000036 L3.49999095,15.0000036 C3.22411855,15.0000036 2.99999095,14.7753905 2.99999095,14.5000036 L2.99999095,13.0000036 L12.9999801,13.0000036 L12.9999801,14.5000036 C12.9999801,14.7753905 12.7758525,15.0000036 12.4999719,15.0000036 Z M13.2841724,8.69923073 C13.110842,8.78223252 12.9999873,8.95802487 12.9999873,9.15041179 L12.9999873,12.0000181 L2.99998733,12.0000181 L2.99998733,9.15041179 C2.99998733,8.95802487 2.88915798,8.78226148 2.71579866,8.69923073 C1.65722364,8.19337159 0.99998733,7.15917968 0.99998733,6.0000181 C0.99998733,4.34572013 2.34567968,3.0000181 3.99998733,3.0000181 C4.04246377,3.0000181 4.0931162,3.01496914 4.13664428,3.01722808 C4.05601742,3.33345159 3.99998733,3.65900049 3.99998733,4.0000181 C3.99998733,4.27638786 4.22361355,4.5000181 4.49998733,4.5000181 C4.7763593,4.5000181 4.99998733,4.27638786 4.99998733,4.0000181 C4.99998733,2.34571289 6.34568692,1.0000181 7.99998733,1.0000181 C9.65428412,1.0000181 10.9999765,2.34571289 10.9999765,4.0000181 C10.9999765,4.27638786 11.2236117,4.5000181 11.4999873,4.5000181 C11.7763575,4.5000181 11.9999873,4.27638786 11.9999873,4.0000181 C11.9999873,3.65900049 11.9439536,3.33345159 11.8633268,3.01722808 C11.9068548,3.01496914 11.9575073,3.0000181 11.9999873,3.0000181 C13.6542914,3.0000181 14.9999873,4.34572013 14.9999873,6.0000181 C14.9999873,7.15917968 14.3427474,8.19337159 13.2841724,8.69923073 Z" id="Shape"></path>
                        </g>
                    </g>
                </g>
            </g>
        </g>
    </g>
</svg>