<?xml version="1.0" encoding="UTF-8"?>
<svg width="147px" height="139px" viewBox="0 0 147 139" version="1.1" xmlns="http://www.w3.org/2000/svg" xmlns:xlink="http://www.w3.org/1999/xlink">
    <title>D4A0DE44-5481-45F2-AC36-7FA8911E14A5</title>
    <defs>
        <polygon id="path-1" points="0 0 101 0 101 114.725133 0 114.725133"></polygon>
    </defs>
    <g id="Content-Modules" stroke="none" stroke-width="1" fill="none" fill-rule="evenodd" opacity="0.1">
        <g id="d_Individual-Video---Concept-A" transform="translate(51.000000, -375.000000)">
            <g id="v1" transform="translate(0.000000, 136.000000)">
                <g id="individual-video-concept-A" transform="translate(0.000000, 98.000000)">
                    <g id="Ind-Video-illu-1" transform="translate(22.500000, 210.500000) rotate(67.000000) translate(-22.500000, -210.500000) translate(-28.000000, 153.000000)">
                        <g id="Group-3" transform="translate(0.000000, 0.274867)">
                            <mask id="mask-2" fill="white">
                                <use xlink:href="#path-1"></use>
                            </mask>
                            <g id="Clip-2"></g>
                            <path d="M17.4879552,14.9485199 C16.6655483,13.5318992 16.1805391,11.7135503 15.3581322,10.2969296 C15.3159575,9.55690384 15.6111805,8.43629344 14.1561529,8.52086781 C12.3426403,9.00717044 10.486953,8.73230373 9.07410013,9.55690384 C9.07410013,9.55690384 8.73670244,9.93748851 9.11627485,10.2969296 C11.1195737,12.7495863 13.1439598,15.9422688 17.1927322,16.0691304 C17.5301299,15.6885457 17.9097023,16.0268432 18.2681873,15.6462585 C17.8675276,15.307961 17.8675276,15.307961 17.4879552,14.9485199 M25.3535389,17.8029049 C24.1515596,16.0479868 22.9495803,14.271925 22.8019688,12.0729914 C22.3169597,10.2546424 21.5367275,9.57804744 20.0816999,9.66262181 C18.9640701,9.36661151 18.2260126,9.3877551 16.7288103,8.75344732 C16.3281506,8.39400625 15.6533552,9.17631918 16.4335874,9.87405773 C17.6988287,12.3690017 19.2803804,14.4833609 20.8830195,16.5977202 C22.0639114,17.6337562 23.518939,17.5491818 24.6787435,18.5852179 C24.6787435,18.5852179 24.7209182,19.3041 25.0583159,18.9235154 C25.416801,18.5429307 25.0161412,18.2046332 25.3535389,17.8029049 M29.4866607,19.409818 C28.2425067,16.9148741 26.6398676,14.8005148 26.4500814,11.8615554 C25.6698493,11.1638169 24.9107044,10.4872219 23.4345895,10.5717963 C23.877424,11.6501195 23.9195987,12.3690017 24.6998309,13.0667402 C25.6065872,15.9634124 26.4922561,18.1200588 28.4744676,20.5727156 C28.85404,20.9110131 29.2968745,21.9893363 29.9716699,21.2281669 C30.3301549,20.8264387 29.5499227,20.1498437 29.4866607,19.409818 M34.8217617,28.2901269 L35.1591594,27.9095422 L35.1169847,27.1695165 C32.881725,26.5563523 32.0593181,25.1397316 29.8240584,24.5265674 C25.7331113,23.6596801 22.042824,23.1522339 17.656654,23.405957 C15.0629092,23.1733775 12.1950288,24.0825519 9.55910932,23.1310903 C9.22171163,23.5116749 8.48365417,23.5539621 8.44147946,22.83508 C8.44147946,22.83508 9.17953691,22.7927928 9.51693461,22.3910645 C13.5657069,22.5390697 17.5512172,21.9259055 21.5999896,22.0739106 C23.0550171,21.9893363 24.172647,22.2853466 25.6487619,22.2007722 C25.9861596,21.8201875 25.9861596,21.8201875 26.365732,22.158485 C26.3235573,21.4184593 26.3235573,21.4184593 25.9439849,21.0801618 C24.0882976,20.8264387 22.5278332,19.4309616 20.6299712,18.4372127 C16.1594517,17.2320279 11.731107,16.7457253 6.56470478,16.3228535 C6.56470478,16.3228535 6.22730708,16.7034381 6.18513237,15.9634124 C6.14295766,15.2445302 6.52253007,15.5828277 6.52253007,15.5828277 C7.97755762,15.4982534 9.45367254,15.413679 10.1706426,15.3713918 C10.9087001,15.3291046 11.6467576,15.2868174 10.8665254,14.6102225 C9.64345874,12.8341607 8.48365417,11.7981247 7.28167488,10.0220629 C5.72121054,8.64772936 4.75119217,10.5506527 2.93767956,11.0158117 C1.482652,11.1003861 2.64245657,12.1364221 3.02202898,12.4747196 C4.47705654,17.9086229 7.32384959,22.5179261 11.2460978,26.7043574 C11.3093599,27.4443832 12.0474173,27.402096 13.1439598,27.6981063 C16.117277,28.2689833 19.0484195,28.0998345 21.979562,27.9306858 C26.3868194,28.4169884 30.7308147,27.4232396 34.8217617,28.2901269 M39.9038145,27.2752344 C39.8405524,26.5352087 38.7229226,26.2180548 38.3011755,25.1608752 C37.7107295,21.8836183 36.4665755,19.3675308 35.9393916,16.8302997 C35.7917801,14.6313661 29.3812239,11.6924067 26.4500814,11.8615554 C27.2303136,12.559294 28.0105458,13.2570325 28.4533802,14.3142122 C30.2668929,20.1075565 33.5143457,25.0551572 39.2079318,28.0364038 C39.2079318,28.0364038 39.2501065,28.7764295 39.9881639,28.7341423 C40.3255616,28.332414 39.9459892,27.9941166 39.9038145,27.2752344 M45.9558857,36.1132561 C44.0580236,35.1195073 43.2356168,33.681743 41.6751524,32.3074095 C41.29558,31.969112 41.2323179,31.2290862 40.5153478,31.2713734 C36.7617985,30.0239015 33.4089089,29.114727 29.7607963,29.3261629 C25.712024,29.1781577 20.9462815,29.0935834 16.5601115,29.3473065 C15.4424816,29.0301526 14.3248518,28.7341423 13.2493966,29.1570142 C14.4092012,30.2141938 14.8520357,31.292517 15.6322678,31.969112 C16.4125,32.6668505 17.1716448,33.3434455 18.2892747,33.6605994 C20.5245344,34.25262 23.1604539,35.2040816 25.7963734,36.1555433 C32.4599779,37.2550101 39.4188053,37.2127229 45.9980604,36.8321383 C47.1156902,37.1492921 45.5974006,36.4938408 45.9558857,36.1132561 M48.7815914,34.4640559 C46.9048167,27.972973 42.2023363,23.0888031 38.216826,18.1834896 L37.8372536,17.8240485 C37.4787686,18.2046332 37.4787686,18.2046332 37.5420306,18.9446589 C38.3644375,20.3612796 39.1868444,21.7990439 39.6718536,23.5962493 C40.6629593,27.9518294 43.0880053,31.4828093 46.1878466,34.25262 C46.5885063,34.5909174 46.6306811,35.3309432 47.3687385,35.288656 C47.7483109,35.6269535 48.1911454,36.7052767 48.9081155,36.6629895 C49.6039982,35.9018202 48.8237661,35.2040816 48.7815914,34.4640559 M49.055727,38.8619231 C48.2754948,38.1853282 47.5585247,38.2276154 46.8204673,38.2699026 C39.46098,37.9527487 31.8062698,38.7562052 23.9828608,36.6418459 C22.8652309,36.324692 21.7476011,36.0286817 20.2925735,36.1132561 C20.3769229,37.572164 22.5278332,36.7264203 23.3502401,38.143041 C26.2602952,37.9738923 28.9383894,39.6653797 31.8695319,39.4962309 C37.3733318,39.5385181 42.8138696,38.8619231 48.3598442,39.6442361 C48.7183293,39.2636514 49.0979017,39.6019489 49.0979017,39.6019489 C48.7183293,39.2636514 49.055727,38.8619231 49.055727,38.8619231 M78.7256368,3.7001287 C77.1440851,1.58576944 76.0264552,1.28975915 73.9598944,3.61555433 C73.285099,4.39786726 72.989876,5.51847766 73.8122829,6.93509836 C74.592515,7.63283692 75.7523196,8.66887295 76.1740667,9.72605258 C76.2373288,10.4660783 76.6169012,10.8043758 76.9542989,10.4237911 C77.3127839,10.0432065 77.6501816,9.66262181 77.6080069,8.92259607 C76.7856001,7.50597536 77.4182207,5.9836367 76.9753863,4.90531348 C76.9332115,4.18643133 76.5536391,3.82699026 77.2706092,3.78470307 C78.0086667,3.74241589 78.0508414,4.48244163 78.0508414,4.48244163 C77.4603954,6.72366244 79.7800046,8.79573451 78.1351908,11.4598272 C78.1351908,11.4598272 78.5147632,11.8192682 78.5569379,12.5381504 C78.5569379,12.5381504 78.261715,13.6587608 78.5991127,13.2781761 C78.9997724,13.6164736 79.3371701,13.235889 79.6745678,12.8553043 C80.750023,12.4112888 80.6024115,10.2123552 82.7954965,10.0854937 C81.5935172,8.33057547 79.9908782,6.21621622 78.7256368,3.7001287 M75.3305725,19.3463872 C75.5203587,16.7668689 77.5447449,13.701048 75.1618736,10.9100938 C74.3394668,9.47232947 73.1796622,8.43629344 73.0742254,6.97738555 C72.694653,6.61794448 72.6524783,5.89906233 71.9565955,6.66023166 C70.8811404,7.1042471 69.3628508,11.9672734 69.7845979,13.0455966 C71.0498392,15.5405405 72.2518185,17.3166023 73.4748852,19.0715205 C74.592515,19.3886744 75.4149219,20.8052951 75.3305725,19.3463872 M54.2010418,44.8244163 L54.1588671,44.0843905 C51.4807729,42.3929031 48.4231063,40.3842618 45.1123914,40.1939695 C41.4431915,40.4054054 37.7950789,40.6168413 34.484364,40.4476926 C30.4988538,41.0397132 26.4500814,40.891708 23.3502401,38.143041 C23.0550171,39.2636514 24.172647,39.5596617 24.9528792,40.2574003 C27.5677113,41.2088619 29.8451457,42.5409083 32.4810652,43.4923699 C33.9993549,44.1478213 35.1169847,44.4438316 36.5720123,44.3592572 C39.1868444,45.3107189 41.7173271,44.8032727 44.3110719,45.0147086 C47.2843891,45.5855856 50.1944442,45.4164368 53.1255867,45.2472881 C53.8636441,45.2050009 53.8636441,45.2050009 54.2010418,44.8244163 M45.2389156,59.6672182 L44.8382558,59.3289208 C42.9403938,58.3351719 41.7384145,56.5591101 39.2501065,57.8065821 L38.9127088,58.2083104 L39.2922812,58.5466078 C40.8105708,59.2020592 42.6451708,59.4557823 44.5008581,59.7095054 C44.5008581,59.7095054 44.8804305,60.0689465 45.2389156,59.6672182 M74.1285932,29.3473065 C75.0142622,25.9854753 75.4992713,22.264203 72.39943,19.5155359 C71.9987703,19.1560949 71.9565955,18.4372127 71.5770231,18.0777716 C70.7546163,16.6611509 69.9322094,15.2445302 68.7302301,13.4684685 C68.7302301,13.4684685 68.371745,13.8701967 68.0343473,14.2507814 C67.7391244,15.3713918 67.064329,16.1325611 67.1065037,16.8725869 C67.1908531,18.3314948 65.820175,19.8961206 66.6004071,20.5727156 C69.3628508,23.7231109 71.0076645,26.5774959 73.053138,29.7701783 L73.8122829,30.4467733 C74.5503403,30.4044861 74.5081656,29.685604 74.1285932,29.3473065 M46.8204673,61.7815775 C46.4408949,61.44328 45.7028374,61.4855672 44.9858673,61.5278544 C43.4675777,60.872403 42.3499478,60.5763927 41.2323179,60.2592388 L40.8527455,59.9209413 C40.8527455,59.9209413 41.2323179,60.2592388 41.2744927,60.9992646 C42.3499478,60.5763927 42.7927823,61.6547159 43.9525869,62.690752 C44.732819,63.3673469 45.4076144,62.6061776 46.1456719,62.5638904 C46.4830696,62.1833058 46.4830696,62.1833058 46.8204673,61.7815775 M74.0653311,34.1257584 C73.6646714,33.7663173 74.0020691,33.3857327 73.6224967,33.0474352 C71.5770231,29.8547527 69.552637,26.6620702 67.4649887,22.729362 C67.4649887,22.729362 66.7480186,22.7716492 66.3473589,22.4333517 C66.3473589,22.4333517 66.0099612,22.8139364 66.0521359,23.5539621 C65.7569129,24.6745725 65.8623497,26.1334804 67.0221543,27.1695165 C69.0043657,29.6433168 70.6070048,31.7365325 72.2518185,34.5909174 C72.6313909,34.9292149 72.694653,35.6692407 73.4537978,36.3669792 C73.7490208,35.2463688 73.7068461,34.5063431 74.0653311,34.1257584 M50.004658,59.7729362 C49.2244258,59.0751976 48.4441937,58.3774591 47.6639615,57.7008641 C46.5041569,56.6648281 45.3865271,56.3476742 44.3110719,56.7916896 C43.9736742,57.1722743 43.9736742,57.1722743 43.2567041,57.2145615 C43.6362765,57.552859 43.6362765,57.552859 44.0158489,57.9123001 C45.5341386,58.5466078 47.4320006,59.5403567 49.3087753,60.5341055 C50.0468327,60.4918183 50.8270649,61.1895569 51.1644626,60.8089722 C51.4596856,59.6883618 50.0468327,60.4918183 50.004658,59.7729362 M73.6857587,40.0248207 C73.938807,38.1641846 71.7035473,37.572164 71.6191978,36.0921125 C70.3117818,32.8571429 67.9710853,30.7850708 66.7269313,28.2901269 C66.3262715,27.9518294 65.9466991,27.5923883 65.6093014,27.9941166 C64.9555934,29.4953116 65.7780003,30.9119323 66.6004071,32.3496966 C68.6037059,34.8023534 70.9654898,37.6144512 72.6313909,40.4476926 C72.2729059,40.8282773 73.053138,41.5260158 73.3905357,41.1454311 C74.1285932,41.103144 73.348361,40.4054054 73.6857587,40.0248207 M56.3308648,61.2318441 C54.4330028,60.2380952 52.8725384,58.8637617 51.6705591,57.0876999 C50.8481522,55.6710792 49.7726971,56.0939511 48.3176695,56.1785255 C47.9802718,56.5802537 47.9802718,56.5802537 48.3598442,56.9185512 C50.6794534,58.9906233 53.6949453,60.2803824 55.9934671,61.6335723 C56.3730395,61.9718698 56.7104372,61.5912852 56.7104372,61.5912852 C57.0689222,61.1895569 56.3308648,61.2318441 56.3308648,61.2318441 M76.6590759,40.5745541 C78.6202,36.7898511 80.9819839,33.3434455 84.1029126,30.5947785 C84.777708,29.8336091 85.1151056,29.4318809 85.4103286,28.3112705 C86.1272987,22.0316235 85.7477263,16.1748483 82.7954965,10.0854937 C81.8254781,11.988417 80.8554597,13.8701967 79.1262966,15.8154072 C78.4515012,16.5977202 77.4182207,17.7394742 77.5236575,19.2195256 L77.5658322,19.9595514 C77.9454046,20.2978489 78.2828023,19.8961206 78.2828023,19.8961206 C79.6534805,18.3526384 81.0241586,16.8091561 82.3948367,15.2656738 C82.7322344,14.8850892 82.6900597,14.1450634 83.8076896,14.4410737 C84.2083493,14.7793712 83.5124666,15.5616841 83.1750689,15.9422688 C81.8043908,17.5068946 80.7711103,18.6697922 79.8010919,20.551572 C78.4304138,22.0950542 77.0597357,23.6596801 76.8066874,25.4991726 C76.2584162,28.4804192 76.0686299,31.0599375 75.5203587,34.041184 C75.5203587,34.041184 75.8999311,34.3794815 75.5625334,34.7600662 L76.2373288,33.9988969 C76.2373288,33.9988969 76.5958138,33.5971686 76.5536391,32.8782864 C77.7767058,29.114727 80.8976345,26.3660599 83.6389907,23.2790954 C83.9763884,22.8985108 83.9763884,22.8985108 84.7144459,22.8562236 C85.0940183,23.1945211 85.136193,23.9134032 84.7987953,24.3151315 C84.4613976,24.6957161 84.1239999,25.0763008 84.1239999,25.0763008 C81.2772069,26.725501 80.0119655,29.7278912 78.3460644,32.4131274 C77.4182207,35.0349329 74.5714277,36.6629895 75.1407863,39.9402464 C75.541446,40.2785438 74.8455633,41.0608568 75.5836208,41.0185696 C75.9842805,41.3568671 76.3216782,40.9762824 76.6590759,40.5745541 M57.9335038,63.3462033 C56.4784763,63.4307777 55.0023614,63.5153521 53.5051591,62.8599007 C51.2698994,62.2678801 49.4563868,62.7330392 47.3054764,63.5999265 C46.925904,63.2404854 46.1878466,63.2827726 46.6306811,64.3610958 C47.0102535,64.7205369 51.9236074,67.0040449 52.9990626,66.581173 C54.4119154,65.7565729 55.8247682,64.9531164 57.9756786,64.0862291 C57.9756786,64.0862291 58.713736,64.0439419 57.9335038,63.3462033 M73.8966323,49.2011399 C73.8755449,42.9637801 69.9532967,38.7773488 66.7058439,33.8086045 L66.3262715,33.470307 C66.3684462,34.1891892 66.0099612,34.5909174 66.0521359,35.3097996 C67.8445611,40.3631182 68.8989289,45.4375804 72.8211771,49.6240118 C73.2218369,49.9623092 73.2640116,50.702335 73.6014093,50.3217503 C73.6014093,50.3217503 73.5592346,49.5817246 73.8966323,49.2011399 M75.3727472,49.1165655 L75.7101449,48.7359809 C77.2706092,44.5918367 81.5302551,42.13918 81.5935172,37.3607281 C81.1928574,37.0224306 81.9309149,36.9801434 82.2683126,36.5784151 C83.7444275,36.4938408 83.2594183,34.6966354 83.9342137,33.9143225 L83.5546413,33.576025 C82.8165838,33.6183122 82.5213609,34.7389226 82.2261379,35.859533 C82.2261379,35.859533 81.8887402,36.2401177 81.5302551,36.6207023 C80.5180621,37.7835999 79.1052092,38.6082 78.4725885,40.1093951 C77.1440851,42.3929031 74.6979518,44.3804008 75.2673104,47.6576577 C75.3094851,48.3765398 75.3094851,48.3765398 75.3727472,49.1165655 M60.548336,64.297665 C59.1354831,65.1222651 56.9845728,65.9891524 55.57172,66.7926089 L55.2343223,67.1943372 C55.634982,67.5326347 55.9723797,67.15205 56.3519521,67.4903475 C58.2076395,67.7440706 59.6204923,66.9406141 61.4340049,66.4543115 C62.150975,66.4120243 63.2264302,65.9891524 63.9012256,65.2068395 C62.7835957,64.9108292 62.0244509,64.2130906 60.548336,64.297665 M49.8148718,85.8641294 C49.7726971,85.1452473 49.0768143,85.9275602 48.6972419,85.5681191 C46.0613224,84.6166575 43.5308397,85.1452473 41.2534053,83.7920574 C40.8527455,83.4537599 40.5153478,83.8343445 40.5153478,83.8343445 C41.3377547,85.2509653 42.1601616,86.6887295 43.3410535,87.7247656 C44.1001983,88.4013605 44.7960811,87.6401912 45.5341386,87.597904 C46.5885063,87.1538886 47.3265638,87.1116014 48.402019,86.6887295 C49.1400764,86.6464424 49.8570465,86.6041552 49.8148718,85.8641294 M57.0478349,78.4850156 C56.2676027,77.7872771 55.5295453,77.8295643 54.8125752,77.8718514 C54.8125752,77.8718514 54.0745177,77.9141386 54.4751775,78.2524361 C56.4152142,79.9862107 57.9545912,81.3605442 60.2109383,81.9737084 C59.0300464,80.9376724 57.8702418,79.9016363 57.0478349,78.4850156 M60.2109383,81.9737084 C60.5905107,82.3120059 60.9700831,82.6503034 61.3707429,83.0097444 C60.9700831,82.6503034 60.5905107,82.3120059 60.2109383,81.9737084 M61.497267,85.2086781 C58.8402601,83.5171907 56.5417383,82.1851443 53.8425568,79.7747748 C52.1766557,76.9203898 49.3087753,77.8084207 46.4408949,78.7175951 C44.6273822,79.1827542 43.2145294,80.0073543 41.4010168,80.4725133 C40.346649,80.9165288 38.4909617,80.6416621 38.9759709,82.460011 C39.0603203,83.9189189 40.7683961,81.9737084 41.5486283,82.671447 C44.5219455,83.242324 47.4952627,83.813201 49.7305224,84.4052215 C50.4474925,84.3629344 50.4474925,84.3629344 50.7848902,83.9823497 L50.4053178,83.6440522 C48.9081155,82.9886008 47.7272236,81.9525648 46.1878466,80.5782313 C46.1878466,80.5782313 45.4497891,80.6205185 45.7871868,80.2187902 L46.5252443,80.176503 C48.0224466,80.8319544 49.5407362,81.4874058 50.7005408,82.5234418 C52.5984028,83.4960471 54.4962648,84.5109395 56.3941269,85.5046884 C58.2498142,85.7584115 59.7048417,85.6738371 61.5605291,85.9275602 C61.8979268,85.5469755 62.2774992,85.885273 62.6148969,85.5046884 C61.8979268,85.5469755 62.2353245,85.1663909 61.497267,85.2086781 M94.435717,54.9944843 C94.6465905,52.414966 94.4568043,49.4760066 94.3091928,47.2982166 C94.6676779,46.8964883 93.8874457,46.2198934 94.6044158,46.1776062 C95.3424733,46.135319 95.0050756,46.5159037 95.384648,46.8542011 C95.4900848,48.313109 95.5744342,49.7931605 95.9961813,50.8714837 C95.6587836,51.2520684 96.0594434,51.6115095 96.0594434,51.6115095 C96.4390158,51.9498069 96.7764135,51.5480787 97.1138112,51.167494 C97.4722962,50.7869094 98.1470916,50.0045964 97.3668594,49.3068579 C96.9451123,48.2496782 96.5022779,47.171355 96.0805307,46.0930318 C95.5955215,44.2746828 94.8574641,44.31697 93.8241836,45.4798676 C93.5922227,47.3405038 91.1039147,48.5668321 91.5678366,50.3851811 C92.0528457,52.2035301 92.8752526,53.6201508 93.3602618,55.4173561 C93.3602618,55.4173561 93.4024365,56.1573819 93.8030963,56.5168229 C94.5200664,56.4745358 94.4778917,55.73451 94.435717,54.9944843 M64.6181957,87.9573451 C64.9555934,87.5767604 64.2175359,87.6190476 64.2175359,87.6190476 C58.2919889,86.4984372 52.3875292,86.096709 46.6939431,88.6339401 C44.5430328,89.4796838 44.1634604,89.1413863 46.1034972,90.8751609 C46.4830696,91.2134584 46.8837293,91.5517558 47.2633017,91.9111969 C48.8026787,93.2855304 50.3209683,93.9409818 52.8092763,92.6935098 C56.3308648,90.2831403 59.8946279,88.6127965 64.2597106,88.3590734 C64.2597106,88.3590734 64.9977681,88.3167862 64.6181957,87.9573451 M91.3780504,64.7416805 L91.7154481,64.3610958 C93.3391745,60.9358338 92.0317584,57.7008641 91.4623998,54.4447509 C91.4202251,53.7047251 90.9773906,52.6264019 90.9352159,51.8863762 C90.5556435,51.5480787 90.2182458,51.9286634 89.8597607,52.309248 C89.6277998,54.1698842 87.8986366,56.1150947 88.7632182,58.2717411 C89.6488872,60.4283876 90.1338964,62.2255929 90.998478,64.3822394 C90.998478,64.3822394 91.0406527,65.1222651 91.3780504,64.7416805 M99.1381973,59.8786542 C99.7286433,57.6374334 99.2436341,55.8190844 98.7164502,53.2818533 C98.7164502,53.2818533 98.6742755,52.5418275 98.2947031,52.2035301 C97.9573054,52.5841147 97.5988204,52.985843 97.2614227,53.3664277 C95.975094,56.3899614 95.4479101,59.3500644 94.1615813,62.3735981 C93.8241836,62.7541828 93.8663584,63.4942085 93.5289607,63.8747932 L93.5711354,64.6148189 C94.3091928,64.5725317 93.9085331,64.2130906 94.2670181,63.832506 C95.2792112,62.6696084 96.3124916,61.5067108 97.3246847,60.3438132 C97.9362181,59.6672182 98.2736158,59.2866336 99.1592847,59.9209413 C99.1592847,59.8997978 99.1592847,59.8997978 99.1381973,59.8786542 M90.2393331,69.9430042 L90.1971584,69.2241221 C91.1671768,67.3211987 90.3447699,65.904578 89.522363,64.4668138 C89.0584412,62.6696084 89.2904021,60.8089722 88.0884228,59.0329105 C87.7088504,58.694613 87.7088504,58.694613 87.7510251,59.4346387 C87.4558022,60.5552491 87.1605792,61.6758595 87.5823263,62.7541828 C88.4679952,64.9108292 89.3325768,67.0674756 89.459101,69.2452657 C89.8597607,69.6047067 89.522363,69.9852914 90.2393331,69.9430042 M99.5388571,60.2169516 C99.3912456,60.1112337 99.2647215,60.0055157 99.1592847,59.9209413 C99.2225468,60.0900901 99.2858088,60.2592388 99.3490709,60.4283876 C99.412333,60.3649568 99.475595,60.301526 99.5388571,60.2169516 M74.5503403,88.4859349 C72.9477013,86.3927192 71.6824599,83.8766317 69.4050255,82.5445854 C67.064329,80.4725133 64.1120991,79.9016363 61.4761796,78.9501747 C60.3585498,78.6541644 59.6204923,78.6964516 58.9035222,78.7387387 C58.9456969,79.4576209 60.0633268,79.7747748 60.4428992,80.1130723 C60.8857337,81.1913955 62.0033635,81.5085494 62.4040233,81.8468468 C65.5460393,85.3355396 69.7213358,87.6613348 73.8544576,89.2682478 C74.592515,89.2259607 74.592515,89.2259607 74.5503403,88.4859349 M99.3490709,60.4283876 C98.0627422,61.9507262 97.0927238,63.7479316 95.0683376,65.2491267 C94.0561446,66.4120243 93.0228641,67.5749219 92.3480687,68.3572348 C92.010671,68.7378195 92.0528457,69.4778452 92.4324182,69.8161427 C92.8119906,70.1755837 92.7698159,69.435558 93.1283009,69.0549733 C94.498979,67.4903475 95.0683376,65.2491267 96.8818503,64.7839676 C99.5177698,63.9593675 99.9395169,62.3524545 99.3490709,60.4283876 M73.2640116,91.5094687 L73.6014093,91.128884 L73.2218369,90.7694429 C69.8267726,89.1413863 66.1153979,88.6127965 62.1720624,89.9448428 C58.9456969,91.2346019 55.7404188,92.5243611 52.5140534,93.8141202 C52.1766557,94.1947049 52.5562281,94.5330024 52.9568878,94.8924435 C54.8547499,95.8861923 56.7315246,96.8587976 58.5450372,96.3936385 C63.5638279,94.6387204 68.1608715,91.8054789 73.2640116,91.5094687 M89.5856251,76.962677 C90.4291193,72.8819636 88.0040734,69.32984 87.3925401,65.333701 L87.329278,64.5936753 C86.9497056,64.2553778 86.6123079,64.6359625 86.6123079,64.6359625 C86.8864435,69.0338297 86.4225217,73.4739842 88.1305975,77.0472513 C88.51017,77.3855488 88.214947,78.5273028 88.5523447,78.1255746 C89.2904021,78.0832874 89.2482274,77.3432616 89.5856251,76.962677 M75.4992713,92.1226328 C75.4992713,92.1226328 75.1196989,91.7631918 74.7823012,92.1437764 C70.0587335,92.7992278 65.4616899,95.6324692 60.7802969,97.0068027 L60.4428992,97.3873874 C60.8224716,97.7468285 60.8224716,97.7468285 61.1598693,97.3451002 C66.2840968,97.0490899 70.8811404,94.2158485 75.5625334,92.841515 C76.2795035,92.7992278 76.2795035,92.7992278 75.4992713,92.1226328 M91.7787101,76.8358154 C92.8119906,75.6729178 93.1072135,74.5523074 94.1615813,74.1294356 C95.5955215,73.3048354 96.6077146,72.1419379 96.8607629,70.3024453 C97.5566456,69.5201324 97.4512089,68.0612245 98.1470916,67.2789116 C98.0838295,66.5600294 99.1803721,66.116014 98.4001399,65.439419 C97.6620824,65.4817062 97.7042571,66.2005883 96.9661997,66.2428755 C96.628802,66.6446038 96.628802,66.6446038 95.9540066,67.4057731 C93.8874457,69.7315683 92.2637193,73.1356867 90.998478,76.1592204 C90.6610803,76.5398051 90.3658573,77.6604155 91.0828274,77.6181283 C91.8630595,78.3158669 91.8208848,77.5758411 91.7787101,76.8358154 M91.5889239,114.725133 C90.4712941,114.407979 90.4291193,113.689097 90.3869446,112.949072 C90.6399929,111.088435 90.1549837,109.29123 89.6699745,107.472881 C88.573432,101.658393 84.9885815,97.0913771 79.6956552,94.448428 C78.5147632,93.412392 77.1019104,94.2369921 76.0264552,94.6598639 C71.7035473,95.6536128 71.3661496,96.0341975 71.2396254,100.072624 C71.2818002,100.812649 72.0620323,101.510388 70.9444025,101.193234 C70.206345,101.235521 70.56483,100.854937 70.1641703,100.516639 C70.1219956,99.7766133 70.4593933,99.3960287 70.0798209,99.0577312 C70.0376461,98.3177055 71.0498392,97.1548079 69.5948117,97.2393822 C68.8567542,97.2816694 66.6636692,97.408531 67.1486784,99.2057363 C67.2962899,101.40467 67.0432416,103.265306 67.5282508,105.062511 L67.5704255,105.802537 C66.4949704,106.225409 66.4527956,105.506527 66.7901933,105.125942 C66.3051841,103.307593 65.8412623,101.489244 66.0732232,99.6497518 C66.3684462,98.5291414 65.9888738,98.1697003 64.9134187,98.6137158 L64.1753612,98.6560029 C59.4517935,99.2903107 59.4517935,99.2903107 60.4639866,103.645891 C60.1265889,104.026475 60.1265889,104.026475 60.1687636,104.766501 L59.7891912,104.40706 C59.008959,103.730465 58.9246096,102.271557 58.8613475,101.531532 C58.7348234,99.3325979 57.9545912,98.6348593 55.7193315,98.0428388 C50.4685798,96.1399154 45.1123914,92.7569406 41.5275409,88.1899246 C39.5875042,86.45615 38.3222628,83.9612061 36.0026537,81.889134 C35.6019939,81.5508366 34.8428491,80.853098 36.2978766,80.7685236 C42.3499478,77.8507079 48.7815914,75.2711896 56.1832533,76.3072256 C60.9911705,77.1529693 65.4827773,78.3581541 69.6580737,80.6839493 C72.6735656,81.9737084 74.6979518,85.1875345 75.6047081,88.0630631 C76.9121242,91.2980327 79.5480437,92.2494944 82.2261379,93.9409818 C83.3859425,94.9770178 85.2416298,95.2307409 86.0640367,96.6473616 C86.1062114,97.3873874 86.8442688,97.3451002 87.2238412,97.6833977 C87.1816665,96.9645155 87.1816665,96.9645155 87.1394918,96.2244898 C84.9674942,90.8328737 83.1750689,85.8006987 81.3826436,80.74738 C78.915423,76.4763743 76.7856001,71.824784 72.2307312,69.1395477 C71.8300714,68.8012502 71.8300714,68.8012502 71.450499,68.4418092 C69.9322094,67.8075014 68.7302301,66.0314396 67.3173772,66.8560397 C66.2419221,67.2789116 67.8445611,69.3932708 68.2663083,70.471594 C67.9289106,70.8733223 67.9710853,71.5922044 67.9710853,71.5922044 C67.6336876,71.9727891 67.5915129,71.253907 67.2119405,70.9156095 C67.1697657,70.1755837 66.769106,69.8372863 66.769106,69.8372863 C65.7990876,66.2005883 65.7990876,66.2005883 62.9733819,67.828645 C59.7681038,69.1184041 57.174359,68.9069682 53.8636441,68.7378195 C50.1733569,68.2092296 46.7572052,66.581173 44.437596,64.5091009 C41.7595018,62.8176135 39.102495,61.1261261 37.0991962,58.6734694 C36.318964,57.9757308 35.1591594,56.9396948 37.6896421,56.4322486 C44.1845478,54.592756 50.7005408,53.4721456 57.764805,54.9099099 C60.7381222,55.4807869 61.9401015,57.2357051 63.8801382,58.9694797 C65.0610301,60.0055157 65.8623497,61.4221364 67.0432416,62.4581725 C67.0432416,62.4581725 67.422814,62.7964699 67.0854163,63.1981982 C66.7480186,63.5787829 66.3473589,63.2404854 66.3473589,63.2404854 C64.4073221,61.5067108 62.8679451,60.1323773 61.3074808,58.7580438 C59.3252693,56.2842434 56.0145545,56.1150947 53.4208097,55.8825152 C53.083412,56.2842434 52.7038396,55.9248024 52.3664419,56.3265306 C52.7460143,56.6648281 52.7460143,56.6648281 53.1255867,57.0031256 C54.7282257,59.1386284 57.3641452,60.0689465 59.6415797,61.4221364 C63.8168761,63.7479316 68.2452209,64.2342342 72.0831197,66.9406141 C72.4837794,67.3000552 73.2007495,67.257768 73.5381472,66.8560397 C73.5381472,66.8560397 73.1585748,66.5177422 73.1164001,65.7777165 C70.0165588,63.0290495 68.308483,59.4346387 65.5460393,56.305387 C63.1631681,53.4932892 59.7259291,51.1252068 57.3008832,47.5730833 C56.520651,46.8964883 56.1410786,46.5581908 55.0656234,46.9810627 C49.1822511,46.5793344 42.9403938,46.5793344 37.4365939,46.5159037 C36.318964,46.2198934 35.9815663,46.600478 36.4033134,47.6788013 C36.4665755,48.418827 36.5087502,49.1588527 36.5509249,49.8777349 C36.5930996,50.6177606 37.7529042,51.6537967 37.0359341,51.6960838 C36.2978766,51.738371 36.2135272,50.2794631 36.2135272,50.2794631 C35.9815663,46.600478 33.6830445,45.2684317 30.3301549,44.3592572 C27.7153228,43.4077956 25.0794033,42.4563339 22.7597941,40.3842618 C21.1993298,39.0099283 21.684339,40.8071337 21.684339,40.8071337 L21.3469413,41.2088619 C20.8619321,39.390513 19.3014678,38.0161794 18.4790609,36.5995587 C18.0994885,36.2401177 18.0994885,36.2401177 17.6988287,35.9018202 C17.361431,36.2824049 17.7410034,36.6207023 17.4036057,37.0224306 C18.2681873,39.179077 18.7953712,41.7163081 19.3225551,44.2535393 C19.3225551,44.2535393 20.1027873,44.9512778 19.3858172,44.993565 C19.0273321,45.3741497 18.9851574,44.6341239 18.605585,44.2958264 C17.7199161,42.13918 17.1927322,39.6019489 16.6866356,37.0647178 C16.5811988,35.5846663 16.1594517,34.5063431 15.3792196,33.8297481 L14.9785598,33.470307 C14.6833368,34.5909174 15.1261713,35.6692407 15.5690058,36.7475639 C15.6533552,38.2276154 16.0751023,39.3059386 16.5179368,40.3842618 L16.5601115,41.103144 C15.8431414,41.1454311 16.1805391,40.7648465 15.7798793,40.4054054 C14.9152977,38.2699026 14.3881138,35.7115279 13.5235322,33.5548814 C13.8609299,33.1742967 13.8187552,32.434271 13.8187552,32.434271 C13.038523,31.757676 12.6167759,30.6793528 12.2582909,31.0599375 C11.2039231,31.4828093 11.9630679,32.1805479 12.3637277,32.5188454 C12.680038,33.3434455 13.0174357,34.146902 12.4902518,34.717779 C12.7854748,35.0349329 12.7222127,35.2252252 12.5956886,35.394374 C12.680038,35.5635227 12.8065621,35.6903843 12.9330863,35.7961022 L12.5535139,35.4578047 C12.5535139,35.4366612 12.5746012,35.4155176 12.5956886,35.394374 C12.4902518,35.2252252 12.4480771,35.0137893 12.4902518,34.717779 C11.5413208,33.8931789 11.2671852,32.5822762 11.2039231,31.4828093 C10.6134771,28.2266961 7.91429556,25.7951829 6.24839444,22.9407979 C3.4437761,19.0715205 2.09418532,15.0965251 0.00653708034,11.1849605 C-0.0778123434,9.70490899 0.660245114,9.6837654 1.37721522,9.62033462 C6.35383122,7.14653429 12.1950288,6.80823681 17.7620908,7.59054973 C22.1904355,8.07685236 27.0405274,9.62033462 31.1736492,11.2272477 C34.9693732,13.2147454 38.0692145,15.984556 40.8527455,19.1138077 C44.3954213,22.9619415 47.5796121,27.19066 49.7516097,32.5822762 C50.5740166,33.9988969 50.2787936,35.1195073 50.7638028,36.9378562 C52.1133936,40.891708 55.9512924,43.6192315 58.713736,46.7696268 C61.4761796,49.9200221 64.2386233,53.0704174 67.3595519,55.8190844 C68.5615312,57.5951462 69.4261128,59.7517926 70.9865772,61.1261261 C72.5892162,63.2404854 75.2673104,64.9319728 75.836669,68.2092296 L76.2162414,68.5475271 C76.5747265,68.1669425 76.5747265,68.1669425 76.1740667,67.8075014 C75.1618736,63.4519213 74.887738,59.0751976 73.8755449,54.7196176 C73.7490208,52.5206839 71.4083243,50.4486119 70.206345,48.6725501 C65.3140784,40.8705644 62.9522946,32.5611326 64.1964486,23.2790954 C64.9134187,16.9994484 67.127591,11.3541092 70.4593933,6.02592388 C71.7668093,3.74241589 72.7579151,1.83949255 74.8455633,0.253723111 L74.9720874,0.126861555 L75.0353495,0.105717963 L77.9243173,-3.65067681e-12 L77.7977931,-3.65067681e-12 C78.261715,0.74002574 78.7888989,1.48005148 79.3793448,2.19893363 C85.3470666,9.57804744 87.6877631,17.8874793 87.1816665,27.1272293 C86.67557,30.827358 85.4103286,33.8297481 84.1239999,36.8532819 C83.533554,39.0945027 82.6057103,41.7163081 83.4702919,43.8729546 C83.5124666,44.6129803 83.5124666,44.6129803 83.1750689,44.993565 L82.7744091,44.6341239 C82.3948367,44.2958264 82.7322344,43.9152418 82.352662,43.5769443 C81.9520023,43.2175032 82.2472252,42.0968928 81.9098275,42.4986211 C81.1928574,42.5409083 80.8343724,42.9214929 81.2772069,43.9998161 C81.7622161,45.7970215 81.8465655,47.277073 82.3315747,49.0742784 C81.994177,49.4760066 82.3737494,49.8143041 81.994177,49.4760066 C81.6567793,49.8565913 81.2561195,49.5182938 81.2561195,49.5182938 C80.0963149,48.4822578 81.4669931,46.9176319 80.2861011,45.9027395 L80.2439264,45.1627137 C79.505869,45.2050009 79.505869,45.2050009 79.1684713,45.5855856 C76.1740667,50.5331862 75.4360093,56.0939511 76.4903771,61.1895569 C77.1440851,65.9257216 79.2317333,69.8372863 79.864354,73.8545689 C80.3282758,75.6517742 81.1506827,77.0895385 82.0363517,79.246185 C83.7233402,82.8194521 85.8109884,86.7521603 86.8020941,91.0865968 C86.8442688,91.8266225 86.9075309,92.5666483 87.624501,92.5243611 C87.9829861,92.1226328 87.919724,91.4037507 87.8775493,90.6637249 C88.4258205,87.703622 88.2360343,84.7646626 88.7843056,81.8045597 C88.7421309,81.0645339 88.6999562,80.3245082 87.5823263,80.0284979 C85.6844643,79.034749 85.8742505,76.4552307 85.4103286,74.6368818 C84.5035723,66.2428755 85.1151056,58.4831771 88.6577814,50.5543298 C89.9230228,47.5307961 92.3269814,44.8244163 93.9928825,42.1603236 C94.6255032,40.6591285 95.4057353,41.3357235 95.8485698,42.4351903 C98.3157905,46.6850524 100.044954,50.9983453 100.698662,55.73451 C101.816292,61.5701416 99.6021192,67.1943372 97.7886066,73.1779739 C97.1348985,74.7003126 95.7220457,75.5037691 94.7098526,76.6666667 C91.5678366,79.4153337 89.9651975,82.8194521 89.5012757,87.2596065 C89.2271401,94.6387204 89.6910619,101.954403 91.5678366,108.46663 C92.3902434,109.883251 92.0950205,111.003861 92.2004572,112.483912 C92.242632,113.202795 92.6643791,114.281118 91.5889239,114.725133" id="Fill-1" fill="#000000" mask="url(#mask-2)"></path>
                        </g>
                        <path d="M63.7114394,108.868358 C62.8046831,105.99283 62.2774992,103.455598 62.087713,100.516639 L62.4251107,100.136054 C62.4251107,100.136054 63.1631681,100.093767 63.2053428,100.812649 C63.3529543,103.011583 63.5216532,105.950542 64.4494968,108.826071 C64.0910118,109.227799 64.0910118,109.227799 63.7114394,108.868358" id="Fill-4" fill="#000000"></path>
                        <path d="M24.3202585,53.8104431 C23.7298125,50.5331862 21.7054263,47.3405038 21.8530378,44.0209597 C23.518939,46.8542011 23.7298125,50.5331862 25.3957136,53.3664277 L25.4378883,54.1064534 C24.6998309,54.1487406 24.6998309,54.1487406 24.3202585,53.8104431" id="Fill-6" fill="#000000"></path>
                        <path d="M24.7841803,43.851811 C24.7841803,43.851811 24.7420056,43.1117853 25.0794033,42.7312006 C25.8174607,42.6889134 25.5222378,43.8095238 25.5222378,43.8095238 C26.3868194,45.9661703 27.251401,48.1228167 27.7364101,49.9200221 C28.5166423,50.6177606 29.2968745,51.3154992 28.263594,52.4783968 C26.6187803,49.6240118 25.712024,46.7273396 24.7841803,43.851811" id="Fill-8" fill="#000000"></path>
                        <path d="M56.520651,105.252804 C56.0356418,103.434455 55.2132349,102.017834 55.4662832,100.157198 C55.0656234,99.8189005 55.4241085,99.4171723 55.8036809,99.7766133 C56.2886901,101.594962 56.7736993,103.392168 57.2376211,105.210517 C57.6382809,105.548814 56.9002234,105.591101 56.520651,105.252804" id="Fill-10" fill="#000000"></path>
                        <path d="M64.7658072,73.1568303 C64.7658072,73.1568303 62.6781589,69.2452657 62.9733819,68.1035117 C64.1331865,69.1606913 64.6181957,70.9578967 65.4406026,72.395661 C65.4406026,72.395661 65.4827773,73.1145431 64.7658072,73.1568303" id="Fill-12" fill="#000000"></path>
                        <path d="M30.8362515,52.6898327 C30.3723296,50.8714837 29.5499227,49.454863 29.7818837,47.6153705 C29.7818837,47.6153705 30.1403687,47.2136422 30.5199411,47.5519397 C31.0049503,49.3702887 31.4899595,51.1886376 31.5743089,52.6475455 C31.9538813,52.985843 30.8362515,52.6898327 30.8362515,52.6898327" id="Fill-14" fill="#000000"></path>
                        <path d="M53.7160327,101.362383 L52.9779752,101.40467 C52.8936258,99.9457621 51.7759959,99.6286082 51.6705591,98.1697003 C52.0079568,97.7891156 52.4086166,98.1274131 52.788189,98.4868542 C52.8303637,99.2057363 53.2731982,100.28406 53.7160327,101.362383" id="Fill-16" fill="#000000"></path>
                        <path d="M85.0940183,-3.65067681e-12 L85.1151056,-3.65067681e-12 L85.136193,-3.65067681e-12 C86.2538229,1.03603604 86.7388321,2.81209781 86.8231815,4.24986211 C86.0007746,2.854385 85.1994551,1.45890789 85.0940183,-3.65067681e-12" id="Fill-18" fill="#000000"></path>
                        <path d="M60.7381222,108.318625 C59.9157153,106.88086 59.8735406,106.161978 59.7891912,104.681927 L60.1687636,105.041368 C60.611598,106.119691 61.3707429,106.796286 61.4761796,108.276338 C61.1387819,108.656922 60.7381222,108.318625 60.7381222,108.318625" id="Fill-20" fill="#000000"></path>
                        <path d="M29.5288354,54.9733407 L29.1281756,54.6350432 C28.3479435,53.9373047 28.3057687,53.1972789 28.263594,52.4783968 C29.3812239,52.7744071 29.4233986,53.5144328 29.5288354,54.9733407" id="Fill-22" fill="#000000"></path>
                        <path d="M21.3469413,41.4837286 L21.684339,41.0820004 C22.1271735,42.1603236 22.1482608,42.9003493 21.8530378,44.0209597 C21.4312907,42.9426365 21.030631,42.5831954 21.3469413,41.4837286" id="Fill-24" fill="#000000"></path>
                        <path d="M19.8919137,47.8056628 C19.5123413,47.4673653 19.4701666,46.7273396 19.4701666,46.7273396 C19.8075643,46.3467549 20.2082241,46.6850524 20.2503988,47.4250781 C20.2503988,47.4250781 20.6299712,47.7633756 20.6721459,48.4822578 C20.2925735,48.1439603 19.8919137,47.8056628 19.8919137,47.8056628" id="Fill-26" fill="#000000"></path>
                        <path d="M12.975261,36.8109947 L12.9330863,36.0709689 L12.5535139,35.7326714 C12.9330863,36.0709689 13.6711437,36.0286817 13.7133184,36.7687075 C13.3548334,37.1492921 12.975261,36.8109947 12.975261,36.8109947" id="Fill-28" fill="#000000"></path>
                        <path d="M73.4116231,24.1459827 L72.6735656,24.1882699 C72.2939932,23.8288288 72.2939932,23.8288288 72.6313909,23.4482442 C72.6313909,23.4482442 73.3694484,23.405957 73.7490208,23.7442545 C73.7490208,23.7442545 74.1285932,24.1036955 73.4116231,24.1459827" id="Fill-30" fill="#000000"></path>
                    </g>
                </g>
            </g>
        </g>
    </g>
</svg>