<?xml version="1.0" encoding="UTF-8"?>
<svg width="221px" height="220px" viewBox="0 0 221 220" version="1.1" xmlns="http://www.w3.org/2000/svg" xmlns:xlink="http://www.w3.org/1999/xlink">
    <title>6FD36295-537B-42D6-A361-2DB3F7A9D53D</title>
    <defs>
        <polygon id="path-1" points="0 0 31.0041639 0 31.0041639 33.0894595 0 33.0894595"></polygon>
        <polygon id="path-3" points="0 0 37.1395306 0 37.1395306 28.7691798 0 28.7691798"></polygon>
        <polygon id="path-5" points="0.477674917 0 1.85244663 0 1.85244663 2.32317366 0.477674917 2.32317366"></polygon>
    </defs>
    <g id="Content-Modules" stroke="none" stroke-width="1" fill="none" fill-rule="evenodd" opacity="0.1">
        <g id="d_Individual-Video---Concept-A" transform="translate(-56.000000, -853.000000)">
            <g id="v1" transform="translate(0.000000, 136.000000)">
                <g id="individual-video-concept-A" transform="translate(0.000000, 98.000000)">
                    <g id="Ind-Video-illu-2" transform="translate(166.500000, 729.000000) rotate(-12.000000) translate(-166.500000, -729.000000) translate(74.000000, 637.000000)">
                        <path d="M87.6242207,136.764769 C85.2940991,137.577879 83.4300019,136.044585 81.6125071,137.113245 C79.2124819,134.023424 83.3833995,133.44263 82.3115435,131.653787 C83.872725,132.397202 82.5911581,133.721411 83.1270861,133.97696 C85.2008943,133.674948 85.6669186,130.027565 88.5562693,130.770981 C88.8591851,132.838605 87.3213049,134.697144 87.6242207,136.764769 M74.249323,133.582021 C73.1075634,129.191222 75.9037093,124.730729 80.3542415,124.916583 C77.7911078,127.565001 75.7406008,130.445736 74.249323,133.582021 M78.1639272,133.535557 C77.6513005,134.580985 79.2357831,135.324401 80.2843378,135.835499 C78.2105296,136.137512 76.9056616,136.137512 76.090119,135.115315 C76.7891555,129.655857 80.8901694,126.473109 82.9173751,122.268165 C83.4999055,126.426646 81.0066755,131.653787 78.1639272,133.535557 M90.0242459,125.032742 C89.2320045,125.311522 88.9523899,124.521643 87.9271365,125.311522 C88.2067511,126.101401 88.4863656,126.868049 88.2300523,127.402379 C87.9970401,129.214454 86.1795453,128.982137 85.4106052,130.561895 C85.0843882,127.193293 87.9038353,124.010545 87.0649915,120.386394 C88.9057875,121.919689 90.2339568,123.197434 90.0242459,125.032742 M84.6416651,117.296573 C84.1523396,118.365233 83.5931104,116.808707 82.8241703,117.087488 C83.9426286,121.478286 80.307639,122.314628 77.1852762,123.40652 C78.1872284,121.315664 80.0047232,120.247004 81.2862901,118.922795 C82.5678569,117.598586 80.9367718,114.253216 83.5232068,112.905775 C84.0824359,114.462301 84.8746772,115.484498 84.6416651,117.296573 M88.2766547,115.182485 C91.4689212,119.294503 93.6592355,124.196399 95.5466339,128.331648 C97.4340324,131.16592 96.7116947,134.023424 94.1252598,135.370864 C92.8436929,136.695073 91.0028969,136.462756 89.4417155,136.997086 C88.8824863,134.139582 89.604824,131.282079 91.3990176,128.912442 C92.4708735,130.724517 93.2631148,131.746713 93.0534039,133.558789 C93.3097172,134.325436 93.0767051,134.859766 93.5893318,135.115315 C95.127212,133.280008 94.8242962,131.189152 94.0087537,128.865978 C92.6572832,126.287255 91.0494993,124.242863 90.466969,121.385359 C89.395113,119.573284 87.2747024,118.574319 86.7387745,117.017792 C86.1795453,115.461266 86.1562441,114.160289 84.8280748,112.882543 C87.4378109,112.859312 87.4611122,114.160289 88.2766547,115.182485 M81.6824107,112.673458 C81.6358083,110.071503 81.6358083,110.071503 84.2455444,110.048272 C83.220291,110.838151 82.1950375,111.62803 81.6824107,112.673458 M50.99471,105.07668 C47.8723471,106.168572 44.2373575,107.004914 42.3499591,104.170642 C41.2781032,102.358567 40.9984886,101.591919 43.5849235,100.244479 C45.4723219,103.078751 48.1053593,104.333264 50.99471,105.07668 M67.4220669,103.264604 C63.7870773,105.401924 59.3132439,102.614116 55.3054349,97.479902 C58.6841111,97.1546577 62.6453177,99.7101487 67.4220669,103.264604 M50.0393602,96.24862 C51.8801562,96.4809374 53.4646388,97.2475847 54.2568802,98.2697811 C55.3520373,100.081857 57.1928333,101.615151 58.777316,102.358567 C53.8607595,104.519118 45.1694061,101.011126 43.5150198,96.3415469 C43.7713332,95.8304487 44.0276466,95.2961188 43.748032,94.5294715 C45.8451414,95.5284362 47.965552,96.5506326 50.0393602,96.24862 M40.9751874,100.290942 L40.4625606,100.035393 C40.1596448,97.9677685 41.1615971,95.8769122 41.907236,94.2971541 C41.6742238,96.1092296 41.2081995,98.4788667 40.9751874,100.290942 M62.2491971,92.4386152 C65.4181624,93.9486781 67.8181875,97.0152673 70.7308395,99.0596601 C71.2667674,99.3152092 72.0590088,100.337406 71.5696832,101.382834 C71.0570565,102.428262 70.8007431,102.962592 69.7521884,102.451494 C68.9599471,101.429297 70.5211285,102.172713 70.4978273,100.894967 C66.3036085,100.174783 63.8802821,95.7839853 59.1734366,94.8082523 C59.9190755,93.251726 57.8452673,93.5305068 57.8219661,92.2295296 C59.103533,90.9053206 60.6647144,91.6719679 62.2491971,92.4386152 M54.6996032,93.3214212 C54.1403741,91.7648948 52.835506,91.7881266 52.0432647,90.7659302 C55.1656276,90.9750158 57.3093394,93.2749577 59.1734366,94.8082523 C60.5016059,96.0859978 62.3191007,96.3183152 63.1579445,98.6647206 C59.4530512,96.8991086 55.5151458,95.6445948 52.1131683,94.6688619 C48.9908055,95.7375218 47.1733107,95.5284362 43.7247308,93.2284942 C44.4703697,91.6487361 45.2393098,90.0922098 45.4723219,88.2569026 C48.617986,89.7669655 50.7849991,93.3911164 54.6996032,93.3214212 M57.7520625,89.6275751 C53.3481328,90.7426984 49.8995529,88.4659882 46.9635997,85.1206182 C47.755841,84.8418373 48.2451666,83.7964092 48.7577933,82.750981 C52.6956987,84.0054948 55.0957239,87.072084 57.7520625,89.6275751 M69.3560678,95.1799601 C67.5152717,94.9476427 66.7230304,93.9254463 65.9074879,92.9032499 C63.8103785,91.8810535 62.4822092,90.603308 60.6414132,90.3709906 C58.2879904,89.8831242 57.7520625,88.3265978 57.1928333,86.7933032 C58.7540147,86.2357415 58.777316,87.5367188 60.082184,87.513487 C58.1947856,84.7024469 54.2801814,84.7489104 54.4898923,81.6358577 C57.3559418,81.0550643 68.2376094,90.7891619 69.3560678,95.1799601 M104.168084,71.2512714 C104.983626,72.2966996 106.568109,73.0401151 107.36035,74.0623116 C109.783677,77.1521325 111.927388,80.7762834 113.558473,84.1216535 C115.725486,89.0235499 117.915801,93.9254463 119.313874,99.1061236 C119.896404,101.963627 120.455633,104.821131 120.245922,107.934183 C120.01291,108.468513 119.756597,108.979612 120.036211,109.769491 C120.875055,113.393642 119.104163,115.740047 117.053656,118.644014 C115.003149,120.247004 114.25751,123.104507 112.742931,124.939815 C109.690472,129.934638 105.309843,133.628484 100.952516,137.345562 C98.8787077,138.92532 96.8282008,140.52831 95.010706,141.59697 C90.0941495,143.757521 85.1542918,144.593864 80.1911329,144.152461 C79.3988916,144.431242 78.3503369,143.920143 77.3017822,143.409045 C79.3755904,143.130264 80.6804585,143.107033 81.9853265,143.083801 C84.8746772,143.827216 87.4611122,142.479776 89.7912337,141.666665 C95.5000315,139.250564 98.8088041,135.04562 103.981674,132.350739 C105.799169,131.282079 107.080736,129.981101 107.570061,127.634696 C108.828327,125.00951 111.135147,122.895422 112.929341,120.525785 C115.9818,116.831939 117.473078,112.394677 118.428427,107.701866 C118.66144,105.889791 117.845897,104.844363 116.517728,103.566617 C118.078909,103.032287 118.055608,101.73131 117.752692,99.6636853 C116.354619,94.483008 114.676932,88.5124517 111.973991,83.3550062 C111.158448,81.0318325 109.038038,80.0328679 107.430254,77.9652433 C105.566157,75.1309714 103.14283,72.0643822 100.486492,69.4856595 C102.047673,68.9513295 103.096228,69.4624277 104.168084,71.2512714 M98.9253102,70.0432211 C100.789407,71.5765157 102.397191,73.6209086 104.004975,75.6885331 C104.540903,77.2218277 105.869072,78.522805 106.684615,79.5450014 C112.53322,84.9115325 114.490522,92.9497134 115.958499,100.732345 C116.214812,101.498992 116.238113,102.79997 116.517728,103.566617 C116.820644,105.657473 115.003149,106.702901 115.562378,108.259428 C117.193463,111.62803 115.399269,113.997667 114.141004,116.599621 C111.624473,120.549016 108.548712,124.219631 106.00888,128.169026 C103.958373,131.049761 100.602998,132.675983 96.9680081,133.512325 C99.5078405,129.56293 96.851502,127.007439 94.9641035,124.173167 C93.8922476,122.384324 92.7737893,119.271271 91.7019334,117.459195 C89.3019082,114.369375 88.2067511,111.279554 84.5018578,109.513942 C84.5018578,109.513942 84.2222432,108.747294 84.4785566,108.212964 C83.220291,108.236196 82.4513508,108.491745 81.2163864,108.514977 C81.2629889,108.352355 81.3095913,108.166501 81.3328925,108.003879 L81.0998803,108.514977 L81.2163864,108.514977 C80.633856,110.629065 79.328988,112.394677 79.3755904,114.787546 C79.981422,118.946027 76.3697336,121.083346 74.8551546,124.219631 C73.3405756,127.355915 70.7774419,130.004333 72.6881416,134.139582 C73.2240695,135.672877 74.0396121,136.718305 76.1367215,137.71727 C81.3794949,138.948552 86.6222684,138.855625 92.0747528,138.2516 C89.5349203,140.900018 85.3407016,141.480811 82.7542666,141.527275 C79.0726746,141.06264 75.437685,141.875751 72.0124063,140.900018 C67.5851754,140.714164 63.64727,139.45965 59.6627621,136.927391 C55.9811701,135.161779 53.8607595,132.861837 51.2044209,130.306346 C47.1733107,125.1489 44.4703697,119.991455 42.023742,114.322911 C42.0004408,113.021934 41.9771396,111.720957 41.1615971,110.675528 C40.0897412,108.886685 39.7868254,106.81906 40.8120788,104.704972 C43.4684174,107.260463 46.1014548,108.538209 49.4568298,106.911987 C51.3442282,109.746259 53.6743498,108.933148 55.4918446,107.864488 C60.944329,105.959486 66.4201146,105.355461 71.872599,104.774667 C73.9697084,104.472655 75.2512753,103.148446 77.8610114,103.125214 C75.9969142,101.591919 75.9503117,98.9899649 74.6221425,97.7122194 C72.2454185,95.9233757 70.893948,93.3446529 69.2861641,91.2770284 C66.6298256,88.7215373 63.973487,86.1660463 62.0860885,83.3317745 C58.6375087,79.754087 54.6530008,77.198596 49.2238176,80.4045756 C50.7150954,75.967314 54.8627118,74.0855433 58.4744002,71.9482235 C62.6220165,70.0664529 66.7696328,68.1846822 71.4531772,66.5584606 C75.8571069,65.4433373 80.5639524,65.118093 84.4785566,65.0483978 L85.2474967,64.7928487 C89.4650167,66.790778 94.4514768,67.2554127 98.9253102,70.0432211 M89.395113,62.911078 C92.5640783,64.4211409 95.7330436,65.9312038 99.1583223,68.2079139 C98.9020089,68.7422439 97.5971409,68.7654756 97.0845141,68.5099265 C95.2204169,66.9766319 92.8669941,66.4887654 90.4902702,64.6999217 C88.6261729,63.1666271 86.8086781,64.235287 84.73487,64.5372996 C79.2357831,63.8403475 74.0163109,63.9100427 69.0764532,66.0705942 C62.5987153,68.7654756 55.3287361,70.4381607 50.2024687,75.7117649 L49.9461553,76.2228631 C46.8703949,79.9167092 43.2820077,83.3550062 41.7907299,87.7922679 C40.8120788,91.1841014 38.7848731,94.0880685 38.8547767,97.9910002 C38.1324391,102.149481 37.9693306,106.563511 39.856729,110.69876 C40.4159582,112.255286 40.718874,114.322911 41.2781032,115.879437 C42.3965615,120.293467 44.5402733,123.894387 47.2199131,127.750855 C53.6510486,135.97489 60.8278229,142.619166 72.5716355,142.456544 C73.1075634,142.712093 73.6201902,142.967642 74.6687449,143.455509 C69.4492726,143.548436 65.0220417,143.33935 61.0841363,142.108068 C52.3927829,138.600076 46.8004912,132.699215 43.5150198,124.684266 C40.2528497,117.970294 37.5266075,111.511871 36.3615467,104.519118 C34.8469677,92.8335547 37.7829208,82.6580541 47.5927325,75.7582283 C50.668493,73.3653595 53.7675546,70.9724906 56.6103029,69.1139517 C60.7113168,65.9312038 65.1152466,63.5383349 70.0784054,62.6787606 C76.0435166,61.0293073 82.8241703,60.4020505 89.395113,62.911078 M70.7308395,55.9183253 C69.7288872,58.0091816 69.7754896,60.6111361 68.2143082,61.145466 C63.2977517,63.3060175 58.893822,65.6988864 53.7209522,68.3705361 C56.2374835,63.1433954 58.241388,58.9616828 58.4044965,53.2234439 C56.3539895,54.8264337 56.1209774,56.6385091 55.8879652,58.4738163 C54.9792178,65.7685816 51.6704452,71.2745032 45.2160086,75.2703619 C40.5790667,78.1975607 38.3188488,82.9136032 36.0586309,87.6296457 C33.8217142,94.9476427 33.7052081,101.963627 35.9188236,109.467478 C37.0605832,113.858276 38.4353549,117.737976 40.3227533,121.873225 C43.3053089,127.82055 45.7752377,133.489094 50.8083003,137.833428 C56.0976762,141.666665 61.3870521,145.47667 67.9346936,145.383743 C71.8492978,145.314048 74.9716607,145.523133 78.1173248,145.755451 C84.6649663,146.940269 89.8611374,145.569597 95.2903205,142.363617 C97.1078154,141.294957 98.9020089,140.226297 99.9505636,139.436418 C105.123433,136.764769 108.711821,133.326472 112.020593,129.121527 C114.327414,125.706462 116.867246,121.757067 119.150765,118.342001 C120.152717,116.251145 121.434284,114.950168 121.92361,112.580531 C123.111972,107.376622 121.993513,102.962592 120.875055,98.5717936 C119.966308,92.3456882 116.75074,86.9326936 114.280811,81.2409182 C112.393413,77.105669 110.2264,73.5047499 106.521506,70.4381607 C101.23213,66.6281559 95.4068266,62.562602 88.5795705,60.5646726 C85.1542918,59.5889397 81.7523144,58.589975 78.8862649,59.1707684 C76.0202154,59.7283301 73.4104792,59.7747936 70.5444297,60.3323552 C71.2434662,56.1506427 74.8551546,52.7355774 73.7133951,48.3215474 C72.4551294,50.9467337 71.7327917,53.8042373 70.7308395,55.9183253" id="Fill-1" fill="#000000"></path>
                        <path d="M171.461994,94.4133128 C174.910574,96.7132547 177.054286,100.314174 179.221299,103.938325 C176.308647,101.893932 172.906669,102.195945 170.296933,102.242408 C166.382329,102.312103 164.541533,100.778809 159.205555,95.6445948 C162.887147,96.1092296 165.962907,93.7395924 169.644499,94.2042272 C170.157126,94.4365445 170.669753,93.3911164 171.461994,94.4133128 M150.048177,94.483008 C152.98413,97.8283781 155.640469,100.383869 155.989987,105.053448 C156.292903,107.144304 156.828831,108.677599 158.157,109.955345 C157.294855,105.030216 156.945337,100.360637 153.473456,95.4819727 C160.790037,96.4112421 162.467725,102.358567 164.145412,108.305891 C165.403678,105.703937 163.539581,104.170642 163.236665,102.079786 C167.197871,103.3343 168.31633,107.725098 170.180427,110.55937 C171.741608,110.02504 170.949367,109.002843 171.438693,107.957415 C173.815417,108.42205 175.935827,110.745224 178.568865,110.69876 C175.120285,108.42205 171.438693,106.656438 167.990113,104.356496 C172.417344,103.241373 175.02708,103.218141 178.196045,104.728204 C179.757227,105.471619 180.572769,106.517048 180.59607,107.818025 C181.434914,111.442176 182.017444,114.276448 182.856288,117.900598 C175.260092,116.204682 167.710498,117.110719 160.347314,114.880473 C156.153095,114.160289 152.448202,111.0937 149.768562,107.237231 C147.321935,102.846433 145.667548,98.2000859 145.574343,92.9961769 C147.391838,91.927517 149.255936,93.4608116 150.048177,94.483008 M166.731847,92.1598343 C163.889099,94.0183733 161.279363,94.0648367 157.877385,94.3668493 C155.267649,94.4133128 152.354997,92.36892 149.465646,91.6255044 C152.821021,88.7215373 161.698785,89.1164769 166.731847,92.1598343 M135.787833,86.3751319 C135.834435,88.9770864 136.906291,89.4881846 143.989861,92.2527613 C143.290824,96.4112421 144.921909,99.7798439 146.296681,103.636312 C149.582153,111.651261 157.78418,117.505659 166.918257,117.366269 C170.599849,117.830903 175.02708,118.039989 178.708672,118.504624 C181.062095,118.969258 183.159204,119.991455 185,120.223772 C184.137855,116.599621 183.299011,112.97547 182.460168,109.328088 C181.015492,102.869665 177.287298,98.5020984 173.023175,93.8789829 C170.366837,91.3234918 166.941558,90.3245272 163.795894,88.8144643 C159.322061,87.3276331 155.66377,86.8629984 151.25984,89.279099 C146.08697,91.9507487 142.149065,90.6962349 137.628629,86.6074493 C137.092701,86.3519002 136.30046,85.3297038 135.787833,86.3751319" id="Fill-3" fill="#000000"></path>
                        <path d="M141.007305,43.1408702 C142.871402,44.6741648 145.50444,45.9286786 146.85591,48.5306331 C147.671453,49.5528295 148.463694,50.5750259 147.694754,52.154784 C146.646199,51.6436858 145.853958,50.6214894 145.830657,49.3205121 C144.222873,47.2528876 142.871402,44.6741648 140.261666,44.7206283 C138.956798,44.74386 137.908244,44.2327618 136.859689,43.7216636 C133.178097,43.2570289 129.799421,43.5822732 126.14113,44.4186157 C126.979974,46.7417893 129.356698,48.5306331 130.684867,49.8083786 C131.500409,50.830575 131.989735,49.7851468 132.246048,49.2508169 C133.550916,49.2508169 133.597519,51.8295397 135.438315,52.061857 C135.135399,49.9942325 133.550916,49.2508169 133.248001,47.1599606 C134.319856,48.9720361 136.69658,49.4599025 138.048051,52.0386253 C139.073304,51.2255145 137.745135,49.947769 139.306317,49.4134391 C140.354871,49.9245373 139.865546,52.2709427 141.170414,52.2477109 C141.68304,51.2022828 139.585931,50.1800864 140.33157,48.62356 C141.939354,50.6679528 143.547138,52.7355774 144.36268,55.058751 C145.364633,52.9678948 143.267523,51.9456983 143.244222,50.6447211 C142.684993,49.1114265 141.356823,47.833681 139.492726,46.3003864 C141.333522,46.5327037 142.382077,47.0205702 142.661692,47.8104492 C143.733547,49.5992929 145.597645,51.1325876 146.436488,53.4557612 C147.508344,55.2678367 146.250079,57.8930229 144.176271,59.472781 C139.795642,61.8888816 135.34511,61.679796 130.638264,60.7272948 C129.822722,59.7050984 132.176145,60.1697331 130.847975,58.8919876 C129.030481,58.6596702 127.935323,56.8708265 125.069274,57.4283882 C123.764406,57.4516199 122.972164,56.4294235 121.900309,54.617348 C118.148813,50.2497816 119.849802,42.6762354 125.581901,41.5611121 C130.521758,40.7015378 136.253857,39.5864145 141.007305,43.1408702 M128.145034,38.9126941 C127.352793,39.191475 126.583853,39.4702558 125.278985,39.4934875 C124.486743,39.7490366 123.46149,40.5389157 122.69255,40.8176965 C122.156622,40.5621474 121.900309,41.0964774 121.900309,41.0964774 C116.774041,46.3700816 117.146861,52.3406379 121.946911,57.2193025 C127.259588,62.3302846 133.550916,64.0494331 140.844197,62.3767481 C142.918005,62.0979672 144.991813,60.5182091 146.786007,59.4495493 C148.323887,57.5910103 147.787959,56.034484 148.533598,54.4779576 C149.768562,50.5517941 150.001574,48.7397187 147.065621,45.3943486 C142.545185,41.305563 138.048051,38.5177546 132.059639,38.8662307 C131.267397,39.1450115 130.75477,38.8894624 129.706216,38.3783642 C130.964481,35.753178 132.455759,32.6168935 132.152843,29.2482917 C129.566408,31.8734779 130.17224,36.0319588 128.145034,38.9126941" id="Fill-5" fill="#000000"></path>
                        <path d="M156.758927,133.117386 C158.623024,134.650681 158.92594,136.741537 158.436614,139.087942 C156.735626,145.337279 153.403552,149.542224 146.902513,150.95936 C146.063669,147.335209 142.195667,149.983627 140.844197,147.404904 C140.308269,147.149355 141.86945,146.615025 141.053908,145.569597 C138.9801,145.871609 137.908244,144.059534 136.323761,143.316118 C135.834435,145.662524 137.675231,145.894841 139.003401,147.172587 C139.516027,147.428136 138.490774,148.218015 139.306317,149.240211 C138.770389,148.984662 138.514075,149.518992 138.514075,149.518992 C131.89653,144.40801 131.034385,140.783859 136.673279,134.464827 C141.28692,128.935673 150.397695,127.495306 156.758927,133.117386 M132.269349,136.880927 C130.498457,139.227333 130.009132,141.59697 131.89653,144.40801 C133.248001,146.986733 134.855784,149.054357 137.488822,150.308871 C146.716103,155.37339 158.390012,150.006858 159.741482,139.06471 C160.46382,136.183975 159.904591,133.326472 156.991939,131.30531 C148.510297,124.661034 135.787833,128.238721 132.269349,136.880927" id="Fill-7" fill="#000000"></path>
                        <g id="Group-11" transform="translate(72.761967, 0.000000)">
                            <mask id="mask-2" fill="white">
                                <use xlink:href="#path-1"></use>
                            </mask>
                            <g id="Clip-10"></g>
                            <path d="M29.3323083,14.8678468 C30.70708,18.7475468 28.2604524,26.5998737 24.6254628,28.7371935 C24.1128361,28.4816444 23.3205947,28.7371935 22.807968,28.5048761 C22.27204,28.249327 20.7108586,28.783657 20.4545452,29.3179869 C17.9147128,33.2441504 13.9768073,32.0128684 11.0874566,31.2694528 C7.42916581,30.8048181 4.77282725,28.249327 2.60581421,24.6484079 C1.5339583,22.8363324 3.35145311,21.7676725 3.32815189,20.4666953 C5.33205642,16.2849827 8.43111807,13.8921138 12.5787344,12.0103432 C15.6777961,10.9184516 19.0564723,9.31546173 22.4584498,10.2911947 C25.3478005,11.0346102 27.9808378,12.289124 29.3323083,14.8678468 M13.7437952,4.18124795 C12.7418429,7.59631322 11.5301797,11.499245 7.10294879,12.6143683 C6.0543941,13.4042474 4.51651388,13.9385773 3.74757377,15.5183354 C-0.842765673,21.0474887 -1.82141672,24.4393222 4.26020051,29.2947552 C8.26800957,33.1279917 13.2311685,33.5693947 18.1710261,32.7330522 C26.0002345,32.5936618 33.1537077,23.138345 30.4041642,15.378945 C30.6138752,13.5668695 29.5420193,11.7547941 27.9575366,10.9881468 C23.99633,8.45588748 19.5224966,6.96905634 14.8622535,8.5952779 C14.0700122,8.87405874 13.8370001,9.38515694 12.532132,9.40838868 C14.5593377,6.52765334 15.5379888,3.11258807 15.7476997,-0.000464634733 C14.4661329,1.32374435 14.4894341,2.6247216 13.7437952,4.18124795" id="Fill-9" fill="#000000" mask="url(#mask-2)"></path>
                        </g>
                        <g id="Group-14" transform="translate(26.370558, 155.230820)">
                            <mask id="mask-4" fill="white">
                                <use xlink:href="#path-3"></use>
                            </mask>
                            <g id="Clip-13"></g>
                            <path d="M30.099938,7.22824897 C35.389314,9.73727652 37.0903027,16.9855783 33.7582289,21.2137544 C32.476662,22.5147316 32.2436499,24.3500388 30.1698417,24.6288197 C29.4009016,24.9076005 29.1445882,25.4419304 28.3523469,25.6974795 C27.606708,27.2772376 25.765912,27.0449203 23.9484172,26.8126029 C17.9367036,27.161079 13.2065569,24.8843688 8.17349432,21.8410113 C6.58901167,21.0975957 5.26084239,19.8198502 3.93267311,18.5421047 C1.27633455,15.9633819 1.48604549,12.8503292 2.20838316,9.99282562 C3.67635974,4.23135495 9.64147089,1.28092441 15.6531845,2.23342561 C21.1522713,2.93037771 25.3697913,4.95153879 30.099938,7.22824897 M6.23949344,1.60616872 C-0.494557826,4.8353801 -2.91788423,15.2664298 4.77151686,20.8652783 C7.94048216,23.6763185 11.9016888,24.9076005 15.5832808,26.6732125 C23.2260795,30.9943155 31.5446134,28.5085197 36.1116516,20.3774119 C37.8592428,16.7300292 37.2767124,13.8725256 35.1330006,10.2716065 C32.7329754,7.1817855 30.5892636,4.88184358 26.6513582,3.6273298 C25.6028035,3.13946333 24.0183208,2.37281603 22.9697661,1.86171782 C17.1910647,0.398118419 12.2046046,-1.34426182 6.23949344,1.60616872" id="Fill-12" fill="#000000" mask="url(#mask-4)"></path>
                        </g>
                        <path d="M143.430632,117.714745 C142.661692,119.294503 141.613137,118.783404 140.308269,118.806636 C138.79369,121.942921 137.046099,125.613535 136.323761,129.795248 C138.141256,128.726588 138.094653,126.124633 139.119907,125.334754 C140.168461,125.845852 138.886895,127.14683 139.958751,127.657928 C141.450028,124.521643 143.500535,121.617676 143.430632,117.714745" id="Fill-15" fill="#000000"></path>
                        <path d="M125.209081,35.5905558 C124.673153,35.3350067 124.393539,34.5683594 124.160526,35.0794576 C122.622646,36.9147648 121.084766,38.7733037 121.900309,41.0964774 C121.900309,41.0964774 122.156622,40.5621474 122.69255,40.8176965 C122.948863,40.3065983 123.438189,39.2611702 123.694502,38.7268402 C123.950816,38.215742 123.950816,38.215742 124.207129,37.6814121 C125.255684,38.1925103 124.23043,38.9823893 125.278985,39.4934875 C126.280937,37.4026312 128.075131,35.0329941 128.26154,31.8967097 C125.418792,32.4542714 126.770263,35.0562259 125.209081,35.5905558" id="Fill-17" fill="#000000"></path>
                        <path d="M58.3345929,64.14236 C61.1307387,59.6818666 62.8783299,54.7335067 63.2977517,49.7851468 C62.785125,49.5295977 62.785125,49.5295977 62.2491971,49.2740486 C61.0375338,54.5011894 59.5462561,58.938451 58.3345929,64.14236" id="Fill-19" fill="#000000"></path>
                        <path d="M44.6567794,72.4128583 C46.9402985,68.997793 47.9189496,65.6059594 46.8004912,61.2151612 C45.0295988,64.8625439 45.0995025,68.7654756 44.6567794,72.4128583" id="Fill-21" fill="#000000"></path>
                        <path d="M155.523962,79.0571349 C154.498709,81.1479912 153.776371,84.0287265 152.518106,86.6539128 C156.129794,84.516593 157.900686,80.8459786 156.549216,78.2672559 C156.292903,78.8015858 155.756975,78.5460367 155.523962,79.0571349" id="Fill-23" fill="#000000"></path>
                        <path d="M49.806348,68.4402313 L50.5752881,68.1614505 C51.5539392,64.7696169 53.8607595,61.3545517 53.2549279,57.1960708 L52.7189999,56.9637534 C51.4840355,60.8666852 50.5053845,64.2585187 49.806348,68.4402313" id="Fill-25" fill="#000000"></path>
                        <path d="M159.578374,86.8165349 C162.421122,84.9347643 163.679388,82.3328098 164.658039,78.9409762 C161.815291,80.7995152 161.349266,84.4468978 159.578374,86.8165349" id="Fill-27" fill="#000000"></path>
                        <path d="M142.801499,127.100366 C145.620946,123.94085 147.112224,119.480357 145.248126,117.947062 C144.525789,120.827797 143.267523,123.452984 142.801499,127.100366" id="Fill-29" fill="#000000"></path>
                        <path d="M132.292651,37.0309235 C133.80723,35.1956163 135.601423,32.8259791 135.018893,29.9917073 C133.504314,31.8270145 132.758675,34.6845181 132.292651,37.0309235" id="Fill-31" fill="#000000"></path>
                        <path d="M156.665722,84.7721421 C159.531772,84.2145804 161.558977,81.3106134 160.46382,78.2207924 C159.461868,80.3116487 157.131746,82.4257367 156.665722,84.7721421" id="Fill-33" fill="#000000"></path>
                        <path d="M81.8921217,9.71040125 C83.4067007,6.57411682 85.2008943,4.20447968 84.8746772,0.835877882 C83.0804837,3.20551501 82.1018326,6.59734855 81.8921217,9.71040125" id="Fill-35" fill="#000000"></path>
                        <path d="M73.387178,58.4738163 C74.3891303,56.38296 76.4629385,54.7799702 75.8804081,51.9224666 C74.8784558,54.0133229 73.3405756,55.8718618 73.387178,58.4738163" id="Fill-37" fill="#000000"></path>
                        <path d="M68.0978021,54.6405798 C69.8686945,52.2709427 70.35802,49.9245373 70.031803,46.5559355 C68.517224,49.6922199 68.5638264,52.2941744 68.0978021,54.6405798" id="Fill-39" fill="#000000"></path>
                        <g id="Group-43" transform="translate(0.000000, 107.295311)">
                            <mask id="mask-6" fill="white">
                                <use xlink:href="#path-5"></use>
                            </mask>
                            <g id="Clip-42"></g>
                            <path d="M0.477674917,1.21966617 L0.570879778,1.28936138 L0.897096795,1.45198354 L0.897096795,0.871190121 C0.757289502,0.987348804 0.617482209,1.10350749 0.477674917,1.21966617" id="Fill-41" fill="#000000" mask="url(#mask-6)"></path>
                        </g>
                        <path d="M149.395743,87.7458044 C153.007431,84.3075074 153.240443,83.7731774 152.424901,81.4500038 C150.887021,83.285311 149.885068,85.399399 149.395743,87.7458044" id="Fill-44" fill="#000000"></path>
                        <path d="M78.7697588,10.8022929 C80.307639,8.96698568 82.3814472,7.36399586 80.4940487,4.55295573 C79.4920965,6.64381202 78.7464576,8.20033838 78.7697588,10.8022929" id="Fill-46" fill="#000000"></path>
                        <path d="M145.154922,126.287255 C148.253983,125.195364 149.022923,123.615606 147.904465,120.525785 C146.389886,122.361092 146.669501,124.428716 145.154922,126.287255" id="Fill-48" fill="#000000"></path>
                        <path d="M163.982304,85.7014116 C165.263871,84.3772026 166.825052,83.8428727 166.265823,80.9853691 C164.448328,82.0540289 163.702689,83.633787 163.982304,85.7014116" id="Fill-50" fill="#000000"></path>
                        <path d="M43.2587065,153.561314 C44.2606587,151.447226 45.5422256,150.146249 44.1907551,147.567526 C43.9810441,149.379602 42.4431639,151.214909 43.2587065,153.561314" id="Fill-52" fill="#000000"></path>
                        <path d="M40.6256691,152.283569 C42.6295737,148.101856 43.1422004,147.056428 41.5344165,144.988803 C41.581019,147.590758 40.0431387,149.449297 40.6256691,152.283569" id="Fill-54" fill="#000000"></path>
                        <path d="M135.415014,37.2632408 L135.950941,37.4955582 C136.69658,35.9390318 139.026702,35.1259211 137.675231,32.5471983 C136.929593,34.1037247 136.183954,35.6834827 135.415014,37.2632408" id="Fill-56" fill="#000000"></path>
                        <path d="M75.9969142,58.4273528 C78.5833491,57.0799121 79.0959758,56.034484 79.2823855,52.9214313 C77.7678065,54.7567385 76.9988664,56.3364966 75.9969142,58.4273528" id="Fill-58" fill="#000000"></path>
                        <path d="M46.9169973,154.025949 C49.2471188,151.888629 48.9675043,151.121982 48.6645885,149.054357 C47.3830216,150.378566 47.1500094,152.190642 46.9169973,154.025949" id="Fill-60" fill="#000000"></path>
                        <path d="M49.5966371,156.58144 C50.5985893,154.490584 51.8801562,153.166375 52.3461805,150.819969 C50.2956735,152.399727 49.5500346,153.979485 49.5966371,156.58144" id="Fill-62" fill="#000000"></path>
                        <path d="M35.1032811,150.285639 C36.3615467,147.683685 36.6178601,147.149355 34.4741482,144.849413 C34.777064,146.917037 34.8003653,148.218015 35.1032811,150.285639" id="Fill-64" fill="#000000"></path>
                        <path d="M74.1328169,13.7294917 C76.952264,10.5699755 76.952264,10.5699755 76.1134202,8.24680185 C75.3677813,9.82655994 75.1347692,11.6386354 74.1328169,13.7294917" id="Fill-66" fill="#000000"></path>
                        <path d="M51.973361,158.370284 C53.7675546,157.301624 54.2801814,156.256196 53.9772656,154.165339 C53.2316267,155.745097 52.2063732,156.534976 51.973361,158.370284" id="Fill-68" fill="#000000"></path>
                        <path d="M65.5812709,59.8909522 C66.0705964,58.8222924 67.6317778,58.2879624 65.7909818,56.7546678 C65.2783551,57.800096 64.7657283,58.8455241 65.5812709,59.8909522" id="Fill-70" fill="#000000"></path>
                        <path d="M88.8824863,5.97009166 C89.6514264,5.71454256 90.9562945,5.69131083 89.8844386,3.87923537 C89.1154985,4.15801621 88.8591851,4.66911442 88.8824863,5.97009166" id="Fill-72" fill="#000000"></path>
                        <path d="M54.676302,178.326345 C54.4199887,177.559698 54.9093142,176.51427 53.8607595,176.003172 C52.3228793,177.861711 49.9927577,178.674821 47.639335,178.186955 C48.1286605,177.141527 48.8976006,176.862746 48.6412872,176.096099 C45.7752377,176.65366 42.3965615,176.955673 39.7402229,175.701159 C39.5072108,176.235489 39.2508974,176.746587 39.7635242,177.002136 C41.6043202,177.234454 43.1888028,178.001101 45.262611,177.699088 C44.5169721,179.278846 45.5655268,179.766713 46.3344669,179.511164 C48.9675043,179.4647 52.1131683,180.974763 54.7229045,180.9283 C55.5151458,180.672751 55.7714592,180.138421 56.5403993,179.85964 C57.2860382,178.303114 58.8472196,177.745552 58.8239184,176.444575 C58.3112916,176.212257 58.2879904,174.91128 57.4957491,175.166829 C57.2627369,177.002136 56.2374835,177.792015 54.676302,178.326345" id="Fill-74" fill="#000000"></path>
                        <path d="M105.892374,121.66414 C104.354493,123.522679 102.793312,124.057009 100.952516,123.824691 C101.185528,122.012616 100.113672,120.20054 99.8107563,118.109684 C102.443794,119.38743 103.771963,120.665175 105.892374,121.66414 M105.23994,114.926936 C106.568109,116.204682 107.639965,117.993525 109.480761,118.249075 C110.03999,119.782369 108.478808,120.339931 108.222495,120.851029 C102.979722,119.642979 98.2029725,116.065291 99.9738649,112.394677 C102.303986,111.581566 103.14283,113.90474 105.23994,114.926936 M111.740979,113.533032 C111.76428,114.834009 111.507966,115.345107 111.018641,116.390536 C107.872977,116.18145 106.00888,114.648155 103.096228,112.603763 C107.010832,111.256322 108.828327,111.488639 111.740979,113.533032 M99.6243466,122.546946 C94.8708987,118.969258 93.4728257,113.788581 90.0009446,110.210894 C93.1466087,110.419979 97.9466591,116.599621 99.6243466,122.546946 M107.220543,109.444246 C106.987531,109.955345 106.987531,109.955345 106.731217,110.489675 C104.377795,110.001808 102.513697,108.468513 101.674854,106.14534 C103.538951,107.678634 105.123433,108.42205 107.220543,109.444246 M98.15637,113.463337 C96.5718874,112.719921 94.474778,111.697725 93.6592355,110.675528 C92.8669941,109.653332 92.0747528,108.631136 90.7698848,108.631136 C89.9776434,108.909916 88.3931608,108.143269 88.1135462,107.376622 C88.3465583,105.564546 89.1387997,105.285766 89.9077398,105.006985 C97.5971409,110.605833 98.1097676,110.861382 98.15637,113.463337 M113.721582,108.02711 C113.511871,109.862418 112.999244,110.907846 111.997292,112.998702 C108.50211,108.120037 104.051578,106.609974 99.2981296,104.356496 C104.517602,104.263569 109.480761,104.728204 113.721582,108.02711 M87.0649915,106.865524 C85.7601234,106.888755 85.2474967,106.656438 84.9678821,105.866559 C85.4572076,104.821131 86.249449,104.54235 87.0183891,104.286801 C87.8106304,105.308997 86.7853769,106.098876 87.0649915,106.865524 M97.4573336,104.124179 C98.8088041,106.702901 101.698155,107.446317 102.280685,110.280589 C100.46319,111.349249 99.1583223,111.37248 98.0864664,109.560405 C97.0146105,107.771561 95.1505133,106.238267 93.3097172,104.704972 C94.8242962,102.869665 96.6883935,104.40296 97.4573336,104.124179 M107.010832,97.7354511 C101.814661,99.1061236 96.6184898,100.500028 91.3757164,99.2687457 C96.2922728,97.1081942 101.465143,94.4365445 107.010832,97.7354511 M97.830153,95.272887 C98.0165628,90.8588571 99.2981296,89.5346481 103.492348,90.2548319 C103.026324,93.9022146 99.88066,93.693129 97.830153,95.272887 M109.224447,90.4174541 C110.832231,92.4850787 110.599219,94.2971541 111.438063,96.6203278 C108.292399,96.4112421 105.170036,96.2021565 102.001071,94.6920936 C103.282637,93.3678846 105.076831,92.2992248 105.566157,89.9528194 C107.406953,90.1851367 108.455507,90.6962349 109.224447,90.4174541 M84.2222432,93.9254463 C83.8960262,90.5568445 84.6416651,87.6761092 85.8999307,85.050923 C86.4591599,87.9084266 87.0416903,90.7659302 84.2222432,93.9254463 M108.688519,88.8609278 C105.542855,88.6518421 102.933119,88.6983056 100.323383,88.7447691 C101.325335,86.630681 101.325335,86.630681 106.00888,85.0044595 C107.337049,86.282205 107.849676,86.5377541 108.688519,88.8609278 M84.0125323,82.2166511 C82.684363,80.9389056 82.4047484,80.1722583 84.198942,79.1035984 C84.2455444,80.4045756 84.5018578,81.1712229 84.0125323,82.2166511 M100.136973,78.3369511 C95.4301278,78.6621954 93.4029221,81.5661625 92.6805844,85.7246433 C93.1932112,84.6792152 94.2184646,83.8893361 94.7310914,82.843908 C95.4534291,79.9631726 97.7835506,79.1500619 100.416588,79.1268301 C103.026324,79.0803667 103.841867,81.4035403 105.44965,83.4479331 C102.863216,84.7953739 101.045721,85.8640337 97.6670445,86.189278 C98.3893822,83.3085427 100.719504,82.4954319 101.744757,80.4045756 C99.1350211,80.4278074 98.1097676,82.5186637 96.5951886,84.3772026 C95.8262485,85.9569607 94.800995,86.7468397 92.9835002,87.8154996 C90.3970653,89.1397086 90.1873544,90.9750158 90.4902702,94.3436176 C92.7271869,88.3265978 95.3136218,87.0023888 98.2029725,87.7225727 C97.5272372,93.2052625 92.0747528,95.1102649 88.7659802,99.3152092 C87.4611122,99.3384409 87.4378109,98.0374637 87.4145097,96.7364865 C88.8591851,90.9982475 90.8630896,85.492326 93.6359343,79.7308553 C94.3582719,76.8733517 97.2243214,76.31579 100.136973,78.3369511 M79.1891807,89.5811116 C78.9561685,91.393187 79.2590843,93.4840433 79.5620001,95.5516679 C79.5620001,96.8526451 80.3775427,97.8748415 81.6591095,96.5506326 C81.6824107,97.8516098 81.4260974,98.3859397 80.1212293,98.4091715 C78.8163612,98.4324032 78.0241199,97.3869751 77.7445053,96.6203278 C77.7212041,95.3193505 76.9056616,94.2971541 76.1134202,93.251726 C77.3483847,89.3487942 75.1813716,85.7246433 75.111468,81.8449433 C74.57554,80.288417 74.2726242,78.2207924 73.9697084,76.1299361 C77.9542163,79.9864044 79.0959758,84.3772026 79.1891807,89.5811116 M81.822218,77.3147547 C80.5639524,79.9399409 82.1717363,81.9843337 82.2183387,84.5862882 C82.2649411,87.1882427 82.3115435,89.7901972 80.5406512,92.1598343 C79.3755904,86.4448272 79.002771,80.4742709 80.4707475,74.7360319 C81.5426034,75.2471301 81.7989168,76.0137774 81.822218,77.3147547 M64.0899931,77.8490846 C62.5055104,77.0824373 61.6899679,76.0602409 63.2278481,74.2249337 C63.2511493,75.5026792 63.8103785,77.0592056 64.0899931,77.8490846 M90.4436677,76.9198152 C88.6261729,77.988475 87.6009195,78.7783541 85.7834246,79.847014 C86.2727502,77.5006086 86.5057623,75.6885331 86.9717866,73.3421277 C88.8125827,73.5744451 89.1154985,75.6420696 90.4436677,76.9198152 M84.4552554,78.5692685 C83.1037849,75.9905457 81.496001,73.9461529 81.4493986,71.3441984 C85.1076894,70.5078559 85.9232319,72.8310295 84.4552554,78.5692685 M80.4707475,74.7360319 C79.6785062,73.7138355 79.119277,72.1573092 78.3270357,71.1351127 C80.1445305,71.3674301 80.7037597,72.9007247 80.4707475,74.7360319 M78.7464576,79.7076235 C76.3464324,77.9187798 74.9949619,75.3400571 73.1308647,72.5057852 C72.8978525,74.3410924 71.5696832,73.0401151 69.9852006,72.2966996 C73.7366963,77.9652433 74.1095157,83.9357996 75.5075886,89.1164769 C75.5308899,90.4174541 75.3211789,92.2295296 76.1134202,93.251726 C75.0881668,94.0648367 75.0648655,92.7638595 74.5289376,92.5083104 C71.872599,89.9528194 69.4725738,86.8629984 68.0978021,82.9832984 C67.2589584,80.6601247 65.1385478,78.3601828 65.3249575,75.2238984 C65.3016563,73.9229211 64.509415,72.9007247 66.0705964,72.3431631 C67.9579948,76.4784122 70.1250079,80.0793313 72.0357075,84.2145804 C71.6861893,79.5450014 69.5191763,75.9440822 67.0958499,71.553284 C70.7541407,72.0179187 73.596889,70.1593798 76.4862397,70.9027954 C78.9095661,75.2703619 79.1891807,76.0602409 78.7464576,79.7076235 M65.7676806,70.2755385 C63.437559,71.0886493 61.8996788,72.9471882 60.6414132,75.5491427 C59.8957743,77.1289008 61.9928837,78.1278655 62.785125,79.1732936 C63.0647396,79.9399409 64.1132943,80.4510391 63.8802821,80.9621373 C64.6958247,83.285311 67.3055608,83.2620792 68.1444046,85.5852529 C70.3114176,90.4871493 74.2959254,94.3203858 77.5114932,98.455635 C79.655205,100.755577 81.7290132,100.453564 82.9872788,97.8283781 C84.0125323,97.038499 84.525159,95.9930709 86.0863404,95.4587409 C82.7309654,98.362708 84.8746772,100.66265 87.764028,102.707043 C84.6416651,102.497957 83.6397128,104.588813 83.4067007,106.400889 C83.4300019,107.701866 84.198942,107.446317 84.2222432,108.747294 C89.2087033,109.188697 90.3271617,113.579495 92.2145601,116.413767 C93.7990428,118.481392 95.1738145,121.060115 97.5505384,122.848958 C99.1583223,124.893351 103.096228,126.124633 105.146735,124.544875 C106.964229,123.476215 109.014736,121.873225 110.552617,120.037918 C113.372064,116.878402 113.558473,112.464372 115.306065,108.793758 C112.090497,103.380763 106.335097,103.218141 101.092323,101.986859 C96.641791,101.801005 92.2145601,102.892897 87.764028,102.707043 C88.2533535,100.360637 90.3737641,101.359602 91.1427042,101.104053 C98.2029725,101.243443 104.447698,100.383869 110.669123,98.2000859 C113.022546,97.3869751 113.511871,96.3415469 112.696328,94.0183733 C111.344858,91.4396505 110.2264,88.3265978 109.410857,86.0034242 C107.267145,82.402505 104.587506,79.8237822 101.931167,77.2682912 C99.5311418,74.201702 97.4573336,74.4804828 94.6145853,76.3390217 C93.5660306,77.1289008 92.8203917,78.7086589 92.3310662,79.754087 C91.0728006,82.3792733 89.7912337,85.0044595 88.2999559,88.1407439 C87.7174255,85.2832403 88.4630644,82.4257367 88.1368474,79.0339032 C88.9057875,78.7783541 89.4417155,79.0106714 90.2106556,78.7551223 C91.771837,78.1975607 92.2611625,77.1521325 91.4689212,76.1299361 C89.0455948,71.7391379 86.1329429,69.7179768 81.6824107,69.5088912 C79.328988,69.0442565 77.488192,68.8119391 75.4143838,69.0907199 C72.0124063,69.3927325 68.8900435,69.1836469 65.7676806,70.2755385" id="Fill-76" fill="#000000"></path>
                        <path d="M66.9094401,132.652751 C65.1152466,135.022388 63.8103785,135.04562 61.1773411,133.791106 C63.2744505,133.489094 65.3482587,133.187081 66.9094401,132.652751 M66.5599219,127.983172 C66.1171988,131.630555 62.9948359,132.722446 59.8258706,131.212384 C62.1559922,130.399273 64.7890295,130.352809 66.5599219,127.983172 M65.6977769,123.058044 C65.9540903,123.824691 68.0511997,123.54591 67.2822596,125.102437 C66.023994,127.727623 63.6938724,128.540734 61.6200642,128.842746 C63.3909566,126.473109 64.1365955,123.592374 65.9074879,121.222737 C67.6783803,117.575354 71.5929844,117.505659 74.7153473,116.413767 C72.9444549,120.084382 69.8686945,122.477251 65.6977769,123.058044 M66.0472952,114.206752 C64.2531016,116.576389 62.7152214,117.133951 60.8744253,116.901634 C57.7287613,116.669316 55.6549531,116.971329 53.3248315,117.78444 C52.7889036,117.528891 52.2529756,117.273342 51.7403489,117.017792 C52.4626866,114.160289 54.5364947,112.557299 58.7307135,113.277483 C61.0841363,113.765349 63.6938724,113.718886 66.0472952,114.206752 M48.617986,118.109684 C50.458782,118.342001 52.5325902,118.063221 54.3733862,118.295538 C52.2995781,119.875296 49.7131431,121.222737 48.9209018,120.20054 C47.0568046,118.667246 46.77719,116.576389 46.9869009,114.764314 C47.9888532,112.673458 50.0859626,112.371445 52.9520121,111.813883 C52.2063732,114.671387 50.1558662,116.274377 48.617986,118.109684 M75.4609862,114.857241 C71.2900686,115.438034 66.8628377,116.529926 64.3230052,120.479321 C63.9035833,125.427681 59.5229548,129.121527 56.3772908,127.611464 C57.915171,127.077134 59.7326658,126.008475 61.5501606,124.939815 C59.7093646,124.707497 59.7093646,124.707497 54.5364947,127.379147 C52.6723975,125.845852 50.8316015,124.312558 49.9927577,121.989384 C54.676302,120.363163 59.0569305,117.947062 63.7870773,118.922795 C66.350211,116.297609 67.6084766,113.672422 72.0357075,113.858276 C73.3638768,113.835045 74.6454437,112.534067 76.1600227,110.675528 C75.4143838,112.255286 76.2066251,113.277483 75.4609862,114.857241 M73.5502865,110.721992 C71.7793942,113.091629 67.0725486,113.416873 62.8550287,111.395712 C66.5366207,111.860347 69.8686945,108.95638 73.5502865,110.721992 M75.8571069,107.306927 C74.8085522,108.096806 72.9910574,107.864488 72.198816,108.143269 C67.002645,109.513942 62.0627873,110.373516 56.5637005,109.676564 C53.9539644,109.723027 51.3442282,109.746259 48.7577933,111.0937 C46.4276718,111.90681 44.6334782,114.276448 45.4490207,116.599621 C46.0082499,118.156148 46.5674791,119.712674 47.3597204,120.73487 C49.8296492,126.426646 54.8394105,129.470003 59.3598463,133.558789 C63.0880408,137.926355 67.7482839,136.276902 69.4958751,131.328542 C69.7288872,129.493235 70.2182127,128.447807 70.4512249,126.6125 L69.9385981,126.380182 C69.1463568,126.635731 69.1463568,126.635731 68.8667422,125.869084 C73.2240695,120.874261 79.9348196,116.344072 77.930915,107.004914 C78.466843,107.260463 78.9794697,107.516012 79.5153977,107.771561 C80.0047232,108.003879 80.7037597,107.794793 81.1930852,107.980647 C81.2396876,108.305891 81.1464828,108.398818 81.0998803,108.514977 L81.3328925,108.003879 C81.3095913,107.980647 81.2629889,107.957415 81.1930852,107.980647 C81.6358083,107.818025 81.9853265,107.376622 81.5659047,106.191803 C79.7717111,107.237231 77.6279992,104.937289 75.8338057,106.005949 C74.785251,106.795828 76.626047,107.028146 75.8571069,107.306927" id="Fill-78" fill="#000000"></path>
                        <path d="M81.5426034,104.890826 C81.0066755,103.3343 81.7523144,101.754542 82.4979533,100.174783 C80.1911329,102.312103 80.2144342,103.589849 81.5426034,104.890826" id="Fill-80" fill="#000000"></path>
                        <path d="M129.123685,50.3427085 C127.772215,47.7639858 125.139178,46.509472 124.04402,43.3964193 C123.298382,46.2771546 126.513949,50.389172 129.123685,50.3427085" id="Fill-82" fill="#000000"></path>
                        <path d="M122.063417,48.9023408 C123.135273,50.6911846 124.719756,51.4578319 126.53725,51.6901492 C126.001323,50.1336229 123.624599,49.6457564 123.577996,47.0438019 C122.552743,47.833681 122.016815,47.6013636 122.063417,48.9023408" id="Fill-84" fill="#000000"></path>
                        <path d="M123.158574,51.9921618 L122.902261,52.5264918 C123.46149,54.0830181 125.045973,54.8264337 127.119781,54.5476528 C126.071226,54.0365546 124.743057,52.7588091 123.158574,51.9921618" id="Fill-86" fill="#000000"></path>
                        <path d="M151.632659,138.414222 C151.353045,137.624343 151.329744,136.323366 150.537502,135.301169 C152.121985,136.044585 153.450154,137.32233 154.242396,138.367758 C154.778324,138.623307 154.755022,137.32233 155.29095,137.554648 C155.803577,137.810197 156.083192,138.600076 156.595818,138.855625 C156.292903,135.463791 154.685119,133.419399 152.052081,132.164885 C149.698659,132.977996 147.601549,131.955799 144.991813,132.002263 C147.368537,133.791106 149.255936,136.625378 151.632659,138.414222" id="Fill-88" fill="#000000"></path>
                        <path d="M140.867498,135.18501 C145.644247,138.762698 145.644247,138.762698 148.230682,137.415257 C145.551042,133.558789 144.479186,133.047691 140.867498,135.18501" id="Fill-90" fill="#000000"></path>
                        <path d="M141.28692,143.757521 C140.215064,141.945446 138.630581,141.20203 136.277159,140.714164 C137.092701,143.037337 139.469425,143.525204 141.28692,143.757521" id="Fill-92" fill="#000000"></path>
                        <path d="M142.545185,141.132335 C140.937402,139.087942 139.352919,138.321295 136.743183,138.367758 C138.60728,139.901053 140.191763,140.644469 142.545185,141.132335" id="Fill-94" fill="#000000"></path>
                        <path d="M143.547138,139.041479 C142.218968,137.763733 141.147113,135.951658 139.050003,136.25367 C140.378172,137.531416 141.729643,138.809161 143.547138,139.041479" id="Fill-96" fill="#000000"></path>
                        <path d="M78.4901442,23.5565162 C78.7697588,24.3231636 79.7950123,23.5332845 80.843567,24.0443827 C80.3542415,25.0898109 79.0493734,25.1130426 79.328988,25.8796899 C80.4008439,27.6917654 81.9620253,27.1342037 83.01058,27.6453019 C84.851376,27.8776193 85.1076894,28.6442666 85.4106052,30.7351229 C89.3252094,30.6654276 90.3737641,29.8755486 90.8630896,28.8301205 C89.0222936,28.5978031 87.9970401,29.3876821 86.4125575,28.6210348 C86.1562441,27.8543875 86.9251842,27.5756067 86.1329429,26.5534103 C84.2921469,26.3210929 82.7076642,25.5776773 81.3794949,24.2999318 C82.6377606,21.6747456 86.0164368,21.3495013 87.0183891,17.9576677 C89.604824,16.6334588 93.0068014,17.6091917 96.1058631,15.2163228 C91.0961018,13.4739426 79.2124819,19.3748037 78.4901442,23.5565162" id="Fill-98" fill="#000000"></path>
                        <path d="M84.8746772,15.6577258 C89.0222936,13.7759552 93.4728257,13.961809 97.6204421,12.0800384 C93.1699099,11.8941845 88.4630644,12.2194288 84.8746772,15.6577258" id="Fill-100" fill="#000000"></path>
                        <path d="M31.3983878,162.040898 C32.4469425,162.551996 33.2391838,162.273215 33.7518106,162.528764 C36.4081491,163.783278 37.7130172,163.783278 39.4839096,161.413641 C39.7402229,160.879311 38.6916682,160.368213 38.9479816,159.857115 C39.7169217,159.578334 41.045091,160.856079 41.5577177,159.810651 C40.7421752,158.788455 39.4140059,157.510709 38.3887524,158.300588 C36.3149443,159.903578 33.7285094,161.227787 31.3983878,162.040898" id="Fill-102" fill="#000000"></path>
                        <path d="M32.3304364,169.567981 L32.0741231,170.102311 C34.986775,172.146703 38.1091379,172.355789 41.2548019,172.564875 L41.5111153,172.030545 C38.6217646,171.310361 35.2197871,170.311396 32.3304364,169.567981" id="Fill-104" fill="#000000"></path>
                        <path d="M39.7402229,175.701159 C40.2528497,174.655731 41.8373323,175.422378 42.6062724,175.143597 C43.1422004,175.399146 44.4470685,175.375915 44.6800806,173.540608 C41.8140311,174.121401 38.1324391,173.633535 35.0100762,173.424449 C36.0819321,175.236524 38.4120537,174.423414 39.7402229,175.701159" id="Fill-106" fill="#000000"></path>
                        <path d="M30.9323635,164.387303 C33.5654008,165.665049 35.6625102,166.664014 39.0877889,167.662978 C38.5285597,166.106452 37.2236917,166.129684 36.9440771,165.339805 C34.8469677,164.34084 32.7498583,164.619621 31.3983878,162.040898 C31.1420744,162.575228 30.116821,163.365107 30.9323635,164.387303" id="Fill-108" fill="#000000"></path>
                        <path d="M59.2899427,172.820424 C61.0375338,169.149809 60.2219913,166.803404 57.3326406,166.08322 C59.7093646,167.872064 57.6821588,170.752799 59.2899427,172.820424" id="Fill-110" fill="#000000"></path>
                        <path d="M31.4682915,165.94383 C32.0508218,168.801333 36.5246552,170.288164 39.1110901,168.940724 C36.4547516,167.68621 33.8683166,167.732673 31.4682915,165.94383" id="Fill-112" fill="#000000"></path>
                        <path d="M52.6490963,124.544875 C54.4432899,122.175238 56.2840859,122.407555 58.3578941,122.128775 C60.4317022,121.826762 62.5288116,121.547981 64.3230052,120.479321 C59.6161597,119.503588 52.8588072,121.431822 52.6490963,124.544875" id="Fill-114" fill="#000000"></path>
                    </g>
                </g>
            </g>
        </g>
    </g>
</svg>