<?xml version="1.0" encoding="UTF-8"?>
<svg width="16px" height="16px" viewBox="0 0 16 16" version="1.1" xmlns="http://www.w3.org/2000/svg" xmlns:xlink="http://www.w3.org/1999/xlink">
    <title>04A33D18-4BC2-429B-9CF7-D874927C0A8E</title>
    <g id="Content-Modules" stroke="none" stroke-width="1" fill="none" fill-rule="evenodd" opacity="0.6">
        <g id="d_Recipe-Card" transform="translate(-1970.000000, -433.000000)">
            <g id="desktop/modules/recipe-card/option-1/with-icons" transform="translate(1824.000000, 202.000000)">
                <g id="key-info" transform="translate(0.000000, 231.000000)">
                    <g id="16x16-servings" transform="translate(146.000000, 0.000000)">
                        <rect id="Rectangle" x="0" y="0" width="16" height="16"></rect>
                        <g id="icon" fill="#000000" fill-rule="nonzero">
                            <path d="M15.5883467,13.6021051 L9.98333251,8.00118133 L10.237425,7.74724304 C10.4902353,7.49461724 10.8153486,7.34436677 11.1528146,7.32421046 C11.7255782,7.2900541 12.2645357,7.04783459 12.6704269,6.64220832 L15.9883587,3.32676043 L15.3247786,2.6636646 L12.7810392,5.20551632 L12.1174279,4.54242049 L14.6611672,2.00053752 L13.9975871,1.33744169 L11.453879,3.87929341 L10.7902989,3.21619758 L13.3340383,0.674345864 L12.6704582,0.0112812854 L9.35252644,3.32676043 C8.94660393,3.7323867 8.7042388,4.27091964 8.66999495,4.84326518 C8.64982392,5.18051624 8.49952626,5.50536101 8.2466847,5.7579868 L7.99259223,6.01189385 L1.97630783,0 L1.40313775,0 L1.28611448,0.297188432 C0.977200575,1.08156589 0.845228852,1.88381841 0.904491036,2.61716445 C0.972040543,3.45304207 1.28980469,4.17676309 1.82353962,4.71007727 L5.55946521,8.44327647 L0.411629813,13.5873551 C-0.137209938,14.1357943 -0.137209938,15.0282034 0.411629813,15.5766113 C0.987739549,16.1523006 1.88577273,16.0928317 2.40233882,15.5766113 L7.99259223,9.99043757 L13.5976377,15.5913926 C14.2023935,16.195707 15.1061183,16.0732691 15.5883467,15.5913926 C16.1372178,15.0429847 16.1372178,14.1505756 15.5883467,13.6021051 Z M8.9102648,6.42108263 C9.32556918,6.00608133 9.57293798,5.46564213 9.60680655,4.89920286 C9.62732159,4.55604553 9.77270939,4.23307577 10.0161378,3.98982501 L10.1267501,3.87929341 L12.1174904,5.8685809 L12.0068781,5.97911249 C11.7634497,6.22236326 11.4402753,6.36761371 11.0968674,6.38814503 C10.5300144,6.42198888 9.98914927,6.66914591 9.57387617,7.08414721 L9.31978369,7.3380855 L9.31071454,7.32902298 L8.65617232,6.67498968 L8.9102648,6.42108263 Z M1.73879,14.913578 C1.55584342,15.0963911 1.25818776,15.0964223 1.07520991,14.913578 C0.892263324,14.7307337 0.892263324,14.4332952 1.07520991,14.2504822 L6.22307658,9.1063723 L6.88668795,9.76946813 L1.73879,14.913578 Z M7.54116762,9.09730977 L2.48708844,4.04695019 C1.77587969,3.33622921 1.72477973,2.25381957 1.95153968,1.30147283 L8.64710317,7.99215005 L7.54116762,9.09730977 Z M14.9247666,14.928328 C14.7417888,15.1111411 14.4441644,15.1111411 14.2611865,14.928328 L8.65614105,9.32740424 L9.31972114,8.66430841 L14.9247666,14.265201 C15.0133941,14.3537637 15.0622111,14.4715141 15.0622111,14.5967645 C15.0622111,14.7220149 15.0133941,14.8397653 14.9247666,14.928328 Z" id="Shape"></path>
                        </g>
                    </g>
                </g>
            </g>
        </g>
    </g>
</svg>