<?xml version="1.0" encoding="UTF-8"?>
<svg width="16px" height="16px" viewBox="0 0 16 16" version="1.1" xmlns="http://www.w3.org/2000/svg" xmlns:xlink="http://www.w3.org/1999/xlink">
    <title>27C6DE71-0B68-409F-942B-D07E774B9ADB</title>
    <g id="Content-Modules" stroke="none" stroke-width="1" fill="none" fill-rule="evenodd" opacity="0.6">
        <g id="d_Recipe-Card" transform="translate(-1824.000000, -458.000000)">
            <g id="desktop/modules/recipe-card/option-1/with-icons" transform="translate(1824.000000, 202.000000)">
                <g id="16x16-prep-time-icon" transform="translate(0.000000, 256.000000)">
                    <polygon id="Path" points="0 0 16 0 16 16 0 16"></polygon>
                    <g id="time" transform="translate(1.000000, 1.000000)" fill="#000000" fill-rule="nonzero">
                        <path d="M7.5,1.76531251 C4.33755882,1.76531251 1.76470588,4.33804753 1.76470588,7.50034375 C1.76470588,10.66264 4.33755882,13.235375 7.5,13.235375 C10.6624412,13.235375 13.2352941,10.66264 13.2352941,7.50034375 C13.2352941,4.33804753 10.6624412,1.76531251 7.5,1.76531251 Z M12.3326765,7.9415 C12.2414412,8.94880677 11.8412647,9.86823522 11.2276471,10.6039368 L10.6195882,9.99590584 L9.99567647,10.619789 L10.6037353,11.22782 C9.868,11.8414095 8.94852941,12.2415676 7.94117647,12.3327987 L7.94117647,11.47075 L7.05882353,11.47075 L7.05882353,12.3327987 C6.05144118,12.2415676 5.132,11.8414095 4.39626471,11.22782 L5.00432353,10.619789 L4.38041176,9.99590584 L3.77235294,10.6039368 C3.15873529,9.86823522 2.75855882,8.94880677 2.66732353,7.9415 L3.52941176,7.9415 L3.52941176,7.0591875 L2.66732353,7.0591875 C2.75852941,6.05185132 3.15870588,5.13245229 3.77235294,4.39675072 L4.38041176,5.00478167 L5.00432353,4.3808985 L4.39626471,3.77286755 C5.132,3.15927803 6.05147059,2.7591199 7.05882353,2.66788878 L7.05882353,3.52993751 L7.94117647,3.52993751 L7.94117647,2.66788878 C8.94852941,2.7591199 9.868,3.15927803 10.6037353,3.77286755 L9.99567647,4.3808985 L10.6195882,5.00478167 L11.2276471,4.39675072 C11.8412647,5.1324817 12.2414412,6.05188073 12.3326765,7.0591875 L11.4705882,7.0591875 L11.4705882,7.9415 L12.3326765,7.9415 Z" id="XMLID_75_"></path>
                        <polygon id="XMLID_95_" points="7.05882353 7.31761684 5.42332353 8.95304187 6.04723529 9.57692504 7.94117647 7.68310008 7.94117647 5.73571876 7.05882353 5.73571876"></polygon>
                        <path d="M15,2.64762501 C15,1.43135723 14.0104412,0.441843759 12.7941176,0.441843759 C12.2365882,0.441843759 11.7005588,0.656363338 11.2962647,1.02931683 C8.96664706,-0.342561464 6.03520588,-0.343649649 3.70373529,1.02931683 C3.29944118,0.656363338 2.76338235,0.441843759 2.20588235,0.441843759 C0.989558824,0.441843759 0,1.43135723 0,2.64762501 C0,3.28091951 0.264235294,3.8670397 0.722147059,4.28069721 C0.249470588,5.27385757 0,6.36789566 0,7.50034375 C0,11.6451832 3.35441176,15 7.5,15 C11.6450294,15 15,11.645742 15,7.50034375 C15,6.36789566 14.7505294,5.27385757 14.2778529,4.28069721 C14.7357647,3.8670397 15,3.28094892 15,2.64762501 Z M12.7941176,1.32415626 C13.5239118,1.32415626 14.1176471,1.91786434 14.1176471,2.64762501 C14.1176471,2.95437565 14.0138235,3.24233304 13.8294412,3.47273425 C13.3622353,2.74176775 12.7647647,2.08703306 12.0600588,1.54517554 C12.2737941,1.40212327 12.5267353,1.32415626 12.7941176,1.32415626 L12.7941176,1.32415626 Z M0.882352941,2.64762501 C0.882352941,1.91786434 1.47608824,1.32415626 2.20588235,1.32415626 C2.47326471,1.32415626 2.72617647,1.40212327 2.93994118,1.54514613 C2.23552941,2.08679777 1.63797059,2.74141483 1.17052941,3.47273425 C0.986147059,3.24236245 0.882352941,2.95437565 0.882352941,2.64762501 Z M7.5,14.1176875 C3.85102941,14.1176875 0.882352941,11.1491471 0.882352941,7.50034375 C0.882352941,3.85154041 3.85102941,0.883000008 7.5,0.883000008 C11.1489706,0.883000008 14.1176471,3.85154041 14.1176471,7.50034375 C14.1176471,11.1491471 11.1489706,14.1176875 7.5,14.1176875 Z" id="XMLID_98_"></path>
                    </g>
                </g>
            </g>
        </g>
    </g>
</svg>