<?xml version="1.0" encoding="UTF-8"?>
<svg width="283px" height="89px" viewBox="0 0 283 89" version="1.1" xmlns="http://www.w3.org/2000/svg" xmlns:xlink="http://www.w3.org/1999/xlink">
    <title>D6C34ECF-36EA-4C2B-A5A5-1588D0E33423</title>
    <defs>
        <polygon id="path-1" points="0 0 121.251023 0 121.251023 74.4543822 0 74.4543822"></polygon>
        <polygon id="path-3" points="0 0 43.0615249 0 43.0615249 36.4119971 0 36.4119971"></polygon>
        <polygon id="path-5" points="0 0 45.1812461 0 45.1812461 42.1340876 0 42.1340876"></polygon>
        <polygon id="path-7" points="0 0.663344109 3.18328047 0.663344109 3.18328047 2.53349497 0 2.53349497"></polygon>
        <polygon id="path-9" points="0 0.175826149 6.87588581 0.175826149 6.87588581 3.02101293 0 3.02101293"></polygon>
        <polygon id="path-11" points="0 0.48751796 3.18328047 0.48751796 3.18328047 2.70932112 0 2.70932112"></polygon>
        <polygon id="path-13" points="0 0.0945256841 10.2183303 0.0945256841 10.2183303 3.1023134 0 3.1023134"></polygon>
    </defs>
    <g id="Content-Modules" stroke="none" stroke-width="1" fill="none" fill-rule="evenodd" opacity="0.1">
        <g id="d_Individual-Video---Concept-A" transform="translate(-1529.000000, -223.000000)">
            <g id="v1" transform="translate(0.000000, 136.000000)">
                <g id="individual-video-concept-A" transform="translate(0.000000, 98.000000)">
                    <g id="Ind-Video-illu-3" transform="translate(1529.000000, -11.000000)">
                        <path d="M248.550539,53.906699 C246.003914,55.9846444 246.003914,55.9846444 244.603271,53.4271731 C245.876583,52.6919001 247.181728,52.6599318 248.550539,53.906699 L248.550539,53.906699 Z M236.358575,60.3323455 C235.594587,57.0715697 236.772401,54.3862249 236.676903,51.7328484 C238.777868,54.9616559 236.899732,57.6470007 236.358575,60.3323455 L236.358575,60.3323455 Z M229.228026,61.9307651 C226.649569,62.6660381 225.280759,61.4192708 225.18526,58.7978628 C225.089762,56.1444864 224.994263,53.5230783 223.59362,50.9336386 C223.720951,54.2263829 223.848282,58.1904634 223.975614,61.4512392 C222.702301,62.1865122 221.365324,61.5791128 220.060179,61.6110812 C221.142494,54.9936243 222.861465,48.9835668 224.548604,42.3341415 C227.986547,46.1703484 230.40584,58.5740841 229.228026,61.9307651 L229.228026,61.9307651 Z M234.894266,55.7608657 C233.652786,57.7748743 234.416774,61.0676185 230.533171,61.8668283 C232.283976,55.8567708 228.8142,50.7418283 227.891049,44.1883082 C227.891049,44.1883082 227.922881,44.827676 227.254392,44.2202766 C227.190727,42.2382364 228.464039,41.5349318 228.400373,40.2242277 C230.565004,45.403107 230.787834,51.3172593 234.894266,55.7608657 L234.894266,55.7608657 Z M236.358575,43.1972881 C233.748285,43.2931932 234.321275,40.6398168 234.25761,39.3291128 C234.957931,40.6078484 236.294909,41.2152478 236.358575,43.1972881 L236.358575,43.1972881 Z M248.423208,50.6139547 C245.812918,51.3811961 243.839284,50.8057651 243.743785,48.184357 C242.311309,44.9235812 240.878833,41.6947737 241.388158,37.7306932 C244.794268,41.5349318 244.380441,47.4810524 248.423208,50.6139547 L248.423208,50.6139547 Z M187.940879,41.7906789 C187.84538,39.1692708 191.028661,37.059357 194.275607,36.9314835 C192.397471,38.9774605 190.519336,41.0234375 187.940879,41.7906789 L187.940879,41.7906789 Z M213.470788,42.781699 C212.993296,47.3851473 215.157927,52.595995 212.038312,56.6559806 L212.738634,57.9347162 C210.128344,58.0625898 209.459855,57.423222 210.001012,54.7698455 C210.574003,52.1164691 211.115161,49.4630927 212.324807,46.7777478 C209.109694,48.2163254 209.237025,51.5090697 207.35889,54.1944145 C207.13606,47.6408944 210.860498,42.8776042 213.247958,36.8355783 C214.648602,39.425018 214.075611,41.4390266 213.470788,42.781699 L213.470788,42.781699 Z M193.320623,46.2023168 C191.346989,45.5949174 190.6785,44.987518 189.309689,43.0694145 C193.766282,40.2561961 197.554386,36.8036099 200.642168,32.0722881 C200.228341,38.689745 196.440238,42.1103628 193.320623,46.2023168 L193.320623,46.2023168 Z M259.532856,33.7346444 C262.174979,34.278107 261.601989,36.9314835 261.028998,38.9454921 C257.08173,38.4339978 252.370475,34.6617277 252.243144,31.3689835 C254.853434,31.2730783 256.890734,33.1592134 259.532856,33.7346444 L259.532856,33.7346444 Z M240.656003,35.7806214 C238.714202,36.5158944 240.114846,38.4339978 238.841533,39.8086386 C237.409057,36.5478628 236.64507,33.2870869 235.212594,30.0582795 C237.21806,31.3050467 237.982048,33.8944864 240.656003,35.7806214 L240.656003,35.7806214 Z M234.03478,34.0543283 C232.697802,32.8075611 231.328991,31.5288254 231.933815,29.5467852 C233.270793,30.7935524 233.971114,32.0722881 234.03478,34.0543283 L234.03478,34.0543283 Z M217.067895,34.0543283 C217.131561,36.0363685 216.55857,38.0503772 217.290725,40.000449 C218.022879,41.9505208 216.7814,43.9645295 215.53992,45.3391703 C216.017412,40.7037536 213.884615,36.1642421 216.303908,31.4648886 C216.272075,30.7935524 216.940564,30.7935524 216.908731,30.1222162 C216.876898,29.45088 217.545387,29.45088 218.182043,29.4189116 C217.609053,31.4009519 217.004229,32.7436243 217.067895,34.0543283 L217.067895,34.0543283 Z M221.142494,37.8585668 C221.428989,45.7547593 221.046996,53.0115841 217.418056,60.3962823 C215.476255,61.1315553 214.107444,59.8847881 212.738634,57.9347162 C213.407122,57.9347162 214.648602,56.5600754 215.380756,58.5101473 C216.622236,57.1355065 217.195226,55.1534662 218.468538,53.7788254 C216.494905,53.2033944 216.55857,55.1534662 215.253425,55.217403 C215.826416,53.2033944 216.399406,51.2213542 216.972397,48.5679777 C218.118378,44.5719289 219.296191,41.2152478 218.468538,36.643768 C217.704551,34.0543283 219.582687,31.3370151 220.123844,28.6836386 C221.524488,31.2411099 221.015163,34.5658226 221.142494,37.8585668 L221.142494,37.8585668 Z M229.896515,28.300018 C228.559537,27.0212823 227.891049,26.3819145 227.79555,24.4318427 C229.164361,25.6786099 230.501339,26.2860093 229.896515,28.300018 L229.896515,28.300018 Z M183.006794,32.7755927 C182.242807,29.4828484 185.426087,27.404903 195.739916,23.6965697 C193.352456,29.7066272 186.794898,28.6516703 183.006794,32.7755927 L183.006794,32.7755927 Z M266.345077,24.2400323 C263.862118,26.9573455 261.856651,26.3819145 259.11903,23.2170438 C261.761153,23.7605065 264.371443,23.6646013 266.345077,24.2400323 L266.345077,24.2400323 Z M258.164046,31.7845726 C254.153112,29.3230065 247.627387,30.2500898 248.009381,22.9612967 C251.988482,24.783495 254.757936,28.6516703 258.164046,31.7845726 L258.164046,31.7845726 Z M196.790398,34.1822019 C196.185575,34.8855065 196.185575,35.5568427 195.517086,34.9174749 C191.569818,34.4059806 189.08686,37.1232938 185.839914,38.5618714 C184.502936,37.3151042 183.134125,36.0683369 183.707116,34.0543283 C186.922229,31.9444145 190.105509,29.8345007 193.320623,28.3959231 C195.867247,26.9893139 197.71355,24.2720007 200.960496,23.5047593 C201.628985,23.4727909 202.233808,22.8014547 203.538953,22.737518 C203.761783,28.0123024 199.973679,31.4329203 196.790398,34.1822019 L196.790398,34.1822019 Z M197.204225,44.7317708 C197.809048,43.3890984 198.413871,42.046426 199.050528,41.3431214 C200.864997,37.9864404 202.7113,35.2691272 201.91548,31.3689835 C201.883647,30.6976473 202.520303,30.0263111 202.520303,30.0263111 C206.34024,27.2450611 208.15471,23.88838 212.674968,22.3858657 C207.740883,29.8345007 205.512587,39.7766703 197.204225,44.7317708 L197.204225,44.7317708 Z M234.03478,51.1893858 C231.933815,46.6498743 231.074329,41.4390266 228.941531,36.8995151 C228.273042,36.9314835 227.668219,37.6028197 227.063396,38.9454921 C226.331241,36.9954203 228.846033,34.9174749 226.20391,33.702676 C226.140244,32.391972 227.445389,32.3280352 226.745068,31.0492996 C225.503588,32.4239404 226.140244,32.391972 224.962431,35.748653 C224.357607,37.059357 225.089762,39.0094289 223.179793,40.4160381 C221.015163,35.2371588 222.765967,29.8984375 223.243459,24.5916846 C220.665002,25.358926 222.065645,27.9483657 220.123844,28.6836386 C220.696835,26.66963 219.359857,25.4228628 220.569503,23.3768858 C220.537671,22.737518 221.20616,22.7055496 222.479472,22.002245 C229.992014,30.2500898 233.01613,40.6717852 234.03478,51.1893858 L234.03478,51.1893858 Z M246.06758,23.6965697 C247.500056,26.9573455 248.932532,30.186153 251.033498,34.0543283 C249.028031,32.8075611 247.691053,31.5607938 245.685586,30.9853628 C244.412274,31.0173312 244.348609,29.7066272 244.316776,29.0352909 C242.8843,25.8064835 242.756968,22.5137392 239.414524,20.0202047 C242.66147,19.8923312 244.666937,20.4677622 246.06758,23.6965697 L246.06758,23.6965697 Z M238.077546,19.4128053 C241.547322,24.5597162 241.770151,31.1132364 247.213561,36.1962105 C245.239927,36.2601473 244.539605,34.9814116 243.871117,34.3420438 C240.465006,30.5058369 239.637353,26.6056932 238.204877,22.7055496 C237.472723,20.7554777 236.772401,19.4447737 234.8306,20.2120151 C237.631887,25.358926 239.191694,31.2091415 243.266293,35.6847162 C244.635104,36.9314835 245.940249,37.5388829 247.945716,38.1143139 C250.587838,38.689745 251.988482,41.9185524 253.420958,44.5079921 C253.420958,45.1473599 253.420958,45.1473599 254.12128,45.7867277 C256.540573,41.0873743 250.619671,40.000449 249.823851,36.0683369 C253.802952,37.8905352 257.08173,38.4339978 259.819352,40.9595007 C258.641538,44.2842134 254.216778,48.4401042 249.728353,50.5819864 C246.990731,47.3851473 248.741536,42.046426 246.672403,38.8495869 C245.335426,38.8815553 246.06758,40.1922593 245.430924,40.8635955 C245.335426,38.8815553 243.329959,37.6347881 243.298126,36.3240841 C240.656003,35.7806214 239.892016,33.1592134 239.191694,31.8804777 C236.454073,28.6836386 234.353108,24.8154634 232.888799,20.9472881 C232.22031,20.3079203 232.856966,19.6046157 232.825133,18.9652478 C234.766934,18.2299749 236.772401,19.4447737 238.077546,19.4128053 L238.077546,19.4128053 Z M224.38944,20.5956358 C223.116128,21.2989404 222.415806,20.0202047 221.110661,20.0841415 C221.110661,20.0841415 220.442172,20.1161099 219.837349,20.7874461 C219.773683,19.4767421 220.410339,18.7734375 221.683652,18.0701329 C222.352141,18.7095007 224.962431,18.6135955 224.38944,20.5956358 L224.38944,20.5956358 Z M213.216126,19.061153 C211.369823,21.7784662 207.486221,22.577676 204.971429,25.3269576 C206.149243,21.9702766 207.995546,19.2849318 209.873681,17.2069864 C211.178826,17.175018 211.879148,17.8143858 213.216126,19.061153 L213.216126,19.061153 Z M206.626735,17.3348599 C206.11741,21.3309088 202.838631,21.4587823 200.228341,21.5546875 C198.318373,22.2899605 195.708083,22.3858657 193.766282,23.1211386 C193.097793,23.153107 192.461137,23.1850754 191.792648,22.5457076 C193.670784,20.4997306 195.612585,19.7644576 198.191042,18.9972162 C195.548919,18.4217852 193.607118,19.1570582 192.365639,20.531699 C189.850847,23.2809806 185.935412,23.4088542 184.120942,27.4368714 C184.152775,28.1082076 182.84763,28.1721444 181.542485,28.2041128 C180.746665,24.2720007 180.714832,23.6326329 184.566601,22.1620869 C189.691683,19.3169001 194.88043,17.8143858 200.705833,16.9192708 C202.679467,16.8553341 204.684934,18.0701329 206.626735,17.3348599 L206.626735,17.3348599 Z M232.061146,16.3438398 C228.846033,17.7824174 228.846033,17.7824174 230.40584,24.3359375 C228.400373,23.0891703 227.636386,20.4677622 229.450856,15.8003772 C230.087512,15.7684088 231.392657,15.704472 232.061146,16.3438398 L232.061146,16.3438398 Z M209.810016,15.2569145 C207.199726,15.3528197 205.257924,16.0880927 203.252458,14.8413254 C205.767249,12.1240122 207.072394,12.0600754 209.810016,15.2569145 L209.810016,15.2569145 Z M201.851814,12.2518858 C199.30519,14.3298312 197.331556,13.7544001 195.357922,13.1789691 C197.26789,12.4436961 199.241524,12.3797593 201.851814,12.2518858 L201.851814,12.2518858 Z M264.371443,6.52954382 C266.376909,7.77631106 268.414209,8.99110991 270.992666,8.25583693 C271.788486,12.1559806 269.878518,13.5625898 265.899417,12.4117277 C262.588806,11.1969289 261.188162,8.63945761 257.813885,6.11395474 C260.424175,5.37868175 262.334143,4.61144037 264.33961,5.2188398 C265.008099,5.85820761 264.371443,5.85820761 264.371443,6.52954382 L264.371443,6.52954382 Z M180.714832,6.49757543 C178.168208,8.57552083 175.557918,8.67142601 174.125441,5.44261853 C176.703899,4.67537716 178.677533,4.61144037 180.714832,6.49757543 L180.714832,6.49757543 Z M244.762435,6.62544899 C245.430924,6.62544899 246.099413,7.23284842 246.767902,7.20088003 C249.410025,8.41567888 252.020315,8.31977371 255.299093,8.19190014 C259.182696,7.39269037 261.95215,11.2288973 265.294594,13.7544001 C262.079481,14.5216415 260.71067,13.2429059 258.673371,11.3567708 C258.800702,14.6495151 260.169512,15.9282507 262.779802,15.8003772 C265.390092,15.704472 267.331894,15.6405352 269.305527,15.54463 C269.401026,18.1980065 267.554723,20.8833513 265.612922,21.6186243 C264.9126,20.3398886 265.485591,18.32588 263.511957,17.750449 C263.511957,18.4217852 264.880768,19.6685524 263.607455,21.0431932 C258.418708,21.9063398 255.108097,20.0521731 252.211311,13.5945582 C253.516456,12.8912536 255.458257,12.1559806 256.795235,13.4027478 C256.73157,11.452676 255.426425,11.4846444 254.153112,12.187949 C252.179479,12.2838542 249.569189,12.3797593 247.563722,11.1329921 C244.889766,9.91819325 241.674653,10.717403 239.637353,9.47063578 C240.369508,10.7493714 241.674653,11.3567708 242.979798,11.3248024 C246.927066,11.8362967 250.937999,13.6265266 253.038964,17.5266703 C251.765652,18.2299749 251.06533,17.590607 250.396841,16.9512392 C246.385908,14.4896731 241.738319,12.6674749 237.090729,10.877245 C235.117095,10.3018139 233.748285,9.0550467 234.957931,6.36970187 C233.620953,5.76230244 233.01613,7.10497486 232.411307,7.77631106 C231.710985,7.13694325 231.042496,6.49757543 231.679152,5.82623922 C232.283976,4.48356681 234.225777,4.41963003 235.594587,5.66639727 C236.836067,4.32372486 237.44089,2.98105244 239.414524,2.88514727 C241.388158,3.4605783 242.725136,4.73931394 244.762435,6.62544899 L244.762435,6.62544899 Z M255.171762,4.89915589 C253.930283,6.9451329 252.625138,6.97710129 251.351826,7.68040589 C248.041214,6.49757543 244.062113,5.34671336 240.656003,1.51050647 C247.149895,-0.0559446839 249.951182,5.12293463 255.171762,4.89915589 L255.171762,4.89915589 Z M229.355358,0.48751796 C230.565004,1.22279095 231.99748,1.0309806 233.398124,0.48751796 L229.355358,0.48751796 Z M211.656318,0.48751796 C214.234775,2.05396911 216.494905,3.42860991 219.105194,1.70231681 C219.646352,1.35066451 220.092011,0.935075431 220.474005,0.48751796 L217.290725,0.48751796 C216.240242,1.09491739 215.380756,0.967043822 214.489438,0.583423132 C214.425772,0.551454741 214.393939,0.519486351 214.362107,0.48751796 L211.656318,0.48751796 Z M202.170142,3.68435704 C200.801332,1.76625359 200.801332,1.76625359 196.822231,0.615391523 C196.6949,0.551454741 196.535736,0.519486351 196.408405,0.48751796 L192.779465,0.48751796 C195.962745,1.35066451 198.955029,3.01302083 202.170142,3.68435704 L202.170142,3.68435704 Z M171.355987,0.935075431 C169.700682,9.56654095 178.454703,15.8003772 186.25374,14.8413254 C190.137342,14.0421157 193.416121,13.9142421 196.758566,15.7684088 C191.537986,15.9602191 187.04956,18.1021013 181.892646,20.3079203 C179.982678,21.6825611 178.709365,23.0572019 178.836697,25.6786099 C180.396504,32.2001616 182.561135,38.0503772 186.062743,43.8366559 C189.532519,48.9835668 194.116443,49.4630927 199.241524,46.6179059 C203.698117,43.8046875 205.512587,39.7766703 207.963713,35.748653 C209.141527,32.391972 209.141527,32.391972 211.688151,30.3140266 C209.300691,36.3560524 207.581719,42.3341415 203.825448,47.0974318 C202.615802,49.1114404 202.838631,55.0575611 204.844098,56.2723599 C210.223842,60.6839978 216.240242,64.3923312 224.071112,64.1046157 C228.01838,63.9447737 231.901982,63.1135955 235.244426,64.9677622 C237.791051,63.561153 239.669186,61.515176 240.242177,58.8617996 C240.083013,54.8977191 239.923849,50.965607 237.186228,47.768768 C236.485906,46.4900323 235.817417,45.8506645 237.058896,44.4760237 C239.159861,47.7048312 239.923849,50.965607 241.992981,53.5230783 C243.393624,56.0805496 245.399091,57.3273168 247.945716,55.9207076 C250.524173,54.5140984 253.771119,53.7148886 255.617421,50.9975754 C256.827068,48.3122306 258.737036,46.9375898 260.615172,44.8916128 C264.33961,40.1283226 266.758903,34.7576329 263.289127,28.9713542 C263.289127,28.9713542 263.257295,28.300018 263.225462,27.6606501 C267.140897,27.5008082 269.019032,25.4548312 269.528357,21.4907507 C269.528357,21.4907507 269.496524,20.8194145 270.13318,20.1480783 C272.552474,14.7773886 272.998133,9.50260417 271.470158,3.62042026 C271.406493,2.37365302 271.119997,1.3826329 271.215496,0.48751796 L269.33736,0.48751796 C269.910351,1.35066451 270.387843,3.07695761 270.897168,6.2737967 C267.077231,8.38371049 267.554723,4.41963003 265.549256,3.17286279 C264.880768,2.56546336 264.275944,3.90813578 262.938967,3.30073635 C263.575623,1.89412716 264.403276,1.0309806 265.326427,0.48751796 L262.30231,0.48751796 C262.270478,0.551454741 262.238645,0.615391523 262.206812,0.679328305 C261.920317,0.615391523 261.665654,0.551454741 261.410992,0.48751796 L258.10038,0.48751796 C259.023532,0.999012213 259.978516,1.54247486 260.9335,2.05396911 C256.063081,4.73931394 251.033498,3.87616739 247.054397,0.48751796 L239.159861,0.48751796 C237.727385,1.22279095 236.485906,2.21381106 235.499089,3.71632543 C232.856966,2.50152658 229.673686,4.57947198 226.967897,2.72530532 C226.936064,1.99003233 226.331241,1.31869612 226.108412,0.48751796 L224.707768,0.48751796 C224.644102,3.04498922 225.662752,3.74829382 229.03703,5.28277658 C229.164361,8.57552083 232.538638,11.0690553 235.84925,12.2518858 C239.796518,13.4027478 243.107129,14.6175467 246.481406,17.1110812 C251.829318,20.1800467 257.209062,24.5916846 261.347326,29.7066272 C262.015815,30.345995 262.684304,30.9533944 262.74797,32.2960668 C260.074014,30.4099318 257.368226,28.5237967 255.330926,25.9982938 C251.256327,22.1940553 246.545072,19.0931214 241.961148,18.6135955 C238.650537,17.3987967 235.308092,15.5765984 232.665969,15.0011674 C227.413557,13.9142421 227.381724,13.2429059 226.267576,18.5496588 L226.299408,19.220995 C220.887832,14.809357 220.251175,14.8413254 215.317091,22.2899605 C217.067895,16.9512392 214.362107,15.0651042 210.383006,13.2429059 C213.598119,11.8043283 214.139277,9.15095187 214.043779,6.52954382 C213.94828,3.71632543 211.974646,2.40562141 210.54217,0.48751796 L206.499404,0.48751796 C206.563069,0.615391523 206.594902,0.743265086 206.626735,0.871138649 C206.403905,0.743265086 206.181076,0.615391523 205.958246,0.48751796 L202.552136,0.48751796 C204.334773,1.3826329 206.149243,2.18184267 208.027378,2.7892421 C208.695867,3.42860991 210.001012,3.39664152 210.096511,5.34671336 C207.518054,6.78529095 206.149243,4.83521911 203.50712,4.29175647 C204.207442,5.5704921 202.93413,6.30576509 202.297474,6.97710129 C197.172392,8.47961566 189.946345,5.53852371 186.444737,0.48751796 L185.139592,0.48751796 C186.47657,1.76625359 187.813548,3.62042026 189.150525,4.83521911 C191.824481,6.72135417 195.135093,7.90418463 197.809048,9.11898348 C201.087827,9.66244612 203.029628,8.92717313 204.875931,6.20985991 C206.212909,6.81725934 207.518054,6.78529095 210.160176,7.32875359 C206.945063,8.76733118 205.035095,10.1739404 202.424805,10.2698455 C198.50937,10.4296875 194.625768,11.2288973 190.710333,11.3887392 C186.794898,11.5166128 182.84763,11.0370869 178.20004,9.24685704 C183.993611,7.04103807 188.704866,10.141972 193.893613,9.27882543 C191.219658,7.42465876 189.182358,6.17789152 186.603901,6.9451329 C183.993611,7.04103807 181.956311,4.48356681 179.346021,4.57947198 C177.340555,4.00404095 176.003577,3.39664152 174.061776,3.4605783 C173.679782,2.4375898 173.488785,1.41460129 173.456953,0.48751796 L171.419653,0.48751796 C171.38782,0.647359914 171.355987,0.807201868 171.355987,0.935075431 L171.355987,0.935075431 Z" id="Fill-1" fill="#000000"></path>
                        <g id="Group-5" transform="translate(161.748977, 0.487518)">
                            <mask id="mask-2" fill="white">
                                <use xlink:href="#path-1"></use>
                            </mask>
                            <g id="Clip-4"></g>
                            <path d="M46.023739,64.2564655 C50.6394957,65.3753592 54.6185963,67.1975575 59.2661858,68.3484195 C61.8764758,68.8918822 64.4549329,67.485273 67.0652229,67.3573994 C72.2858029,67.8369253 77.5382157,68.2844828 82.0584739,66.7819684 C80.8488273,68.795977 78.9070263,69.53125 76.9333924,69.6271552 C69.7710113,69.9148707 61.9719742,70.8739224 54.7459275,69.8189655 C48.1247042,68.1246408 42.1401369,65.6950431 36.1237368,61.9867098 C36.1237368,61.9867098 35.4870807,62.0186782 36.091904,61.347342 C36.091904,60.6760057 36.7285601,60.6440374 37.397049,60.6440374 C40.1028374,63.1695402 43.3816163,63.6810345 46.023739,64.2564655 M16.3873979,41.6867816 C19.2523503,47.5050287 23.9636054,51.2772989 27.4333811,56.3922414 C28.0700372,56.3922414 28.0700372,56.3922414 28.1337028,57.7029454 C22.0536371,52.6519397 16.6102275,47.6009339 13.0449534,39.8326149 C14.3819312,40.4400144 15.6870762,40.408046 16.3873979,41.6867816 M0.311831556,14.0021552 C0.470995579,18.6056034 1.33048131,23.1770833 3.43144641,27.0452586 C8.30186553,35.420977 11.9308053,44.5 18.1063694,52.1724138 C22.1809684,56.6160201 26.9240563,61.027658 32.9086235,63.4252874 C36.8877241,64.6081178 39.5935125,67.1336207 43.5726131,68.955819 C41.0578215,71.0337644 38.4793643,71.8010057 37.2697178,74.4543822 C40.484831,73.0158046 43.0632882,72.2805316 44.2729348,69.5951868 C52.8359592,71.2255747 60.7623276,73.5592672 69.2298536,73.2076149 C74.4504336,72.3444684 79.6710136,72.152658 84.0957734,68.7000718 C84.7642623,68.6681034 85.3690856,67.9647989 86.0375745,67.9328305 C95.7147471,64.9278017 103.322787,58.6939655 108.893528,49.9346264 C110.676165,45.9066092 112.490635,41.878592 114.973594,37.8505747 C120.480669,28.387931 122.008644,17.1350575 120.926328,5.97808908 C120.862663,3.99604885 121.467486,2.65337644 120.735332,0.735272989 C120.608,0.479525862 120.512502,0.255747126 120.385171,0 L118.029543,0 C118.061376,0.0639367816 118.061376,0.127873563 118.093209,0.159841954 C120.194174,4.02801724 119.684849,7.9920977 119.844013,11.9561782 C119.462019,19.2130029 118.44337,26.501796 115.451086,33.215158 C113.604783,36.5718391 111.089992,39.3211207 109.944011,43.2852011 C108.097708,46.6738506 106.283238,50.0305316 103.768447,52.7798132 C99.4073525,58.8538075 93.0089587,62.4022989 86.5787322,65.3114224 C85.9420761,65.3114224 84.6369311,65.3753592 83.9684422,65.4073276 C87.1835555,63.96875 89.0298581,61.2514368 91.5764825,59.1734914 C102.431469,52.1724138 109.912178,42.6458333 113.350121,29.9863506 C115.069092,23.3369253 116.788064,17.3588362 116.501569,10.1020115 C116.374237,6.71336207 115.291922,3.35668103 114.464269,0 L112.968127,0 C113.159124,0.575431034 113.381954,1.11889368 113.572951,1.66235632 C114.432436,6.90517241 115.260089,11.4766523 114.145941,16.7834052 C113.604783,19.4367816 113.063626,22.7614943 112.554301,26.0862069 C110.962661,36.0283764 106.028576,43.4450431 99.1208572,50.9576149 C95.3327535,55.0815374 90.2395047,57.8947557 85.7829121,61.3793103 C82.6314644,64.128592 78.7478622,65.5991379 74.1957712,65.7909483 C69.6118473,65.9507902 65.6645795,65.439296 61.1443213,66.9418103 C59.8710091,67.0057471 59.2025202,67.0377155 58.5340313,66.3983477 C57.1652207,65.1196121 55.2234196,65.2155172 53.8864418,64.6081178 C50.5758301,63.393319 47.2652184,62.8818247 43.9864396,62.3383621 C40.6758279,61.1555316 37.9700395,58.6300287 34.6594278,58.0865661 C33.9909389,57.4791667 32.6857939,57.5111351 31.3488161,56.9037356 C27.9745388,53.7388649 24.5684287,49.9346264 21.1304858,46.0984195 C16.9922212,40.3441092 12.8539566,34.5897989 10.020837,28.7715517 C7.85620626,23.560704 5.72340835,19.0531609 5.50057872,13.1390086 C4.7047586,9.20689655 5.85073957,5.2108477 5.72340835,1.24676724 C3.17678398,3.32471264 3.94077129,5.94612069 3.3677808,8.59949713 C3.01761995,16.527658 4.60926019,23.6885776 8.74752479,30.1142241 C9.4796793,31.4249282 9.4796793,31.4249282 9.54334491,33.4069684 C6.86938932,31.5208333 4.7365914,26.9813218 3.94077129,23.720546 C2.50829508,20.4917385 2.38096386,16.5596264 1.58514374,13.2668822 C0.789323626,9.36673851 1.2986485,5.40265805 2.44462947,1.3746408 C2.60379349,0.927083333 2.76295751,0.479525862 2.89028873,0 L1.2668157,0 C0.311831556,4.57147989 -0.452155756,8.79130747 0.311831556,14.0021552" id="Fill-3" fill="#000000" mask="url(#mask-2)"></path>
                        </g>
                        <g id="Group-8" transform="translate(50.955793, 0.487518)">
                            <mask id="mask-4" fill="white">
                                <use xlink:href="#path-3"></use>
                            </mask>
                            <g id="Clip-7"></g>
                            <path d="M13.2828065,20.4597701 C12.709816,21.8024425 12.1049927,23.1451149 12.1368256,24.455819 C14.8107811,25.6706178 14.014961,21.7385057 15.9249293,21.0032328 C17.2300743,20.2999282 19.1400426,19.5646552 21.0500109,18.158046 C20.0313611,25.4468391 12.3278224,29.0592672 4.40145402,27.3649425 C5.54743499,22.7295259 11.245507,17.8703305 16.466087,17.6785201 C16.4979198,18.9892241 13.8876298,19.1170977 13.2828065,20.4597701 M29.2310417,27.077227 C30.472521,25.03125 28.4352215,23.1451149 29.6767009,21.1311063 C32.4143221,24.295977 32.5098205,26.9493534 27.4802374,32.4159483 C24.7107834,27.9084052 23.8512977,22.6655891 25.5702691,16.6555316 C27.6712342,20.5556753 27.7985654,23.8164511 29.2310417,27.077227 M28.9445464,19.1810345 C26.9072469,17.262931 28.1487263,15.2489224 28.7217168,13.2668822 C28.7853824,15.216954 28.8808808,17.1989943 28.9445464,19.1810345 M23.8194649,4.89116379 C22.5779855,6.23383621 22.5779855,6.23383621 19.9040299,5.05100575 C19.3310394,7.03304598 19.3310394,7.03304598 25.8885972,8.08800287 C22.1004934,11.5405891 18.1532256,10.3577586 16.0204277,5.85021552 C18.5352193,3.77227011 21.7821654,2.97306034 23.8194649,4.89116379 M29.6767009,3.99604885 C29.0400448,4.66738506 27.7667326,5.40265805 26.4615876,5.43462644 C22.2596574,-1.63038793 17.2300743,3.80423851 12.0094943,4.02801724 C13.4101377,5.94612069 14.1104594,7.22485632 14.7789483,7.86422414 C18.2168912,12.3397989 20.859014,12.9152299 24.0422945,10.8053161 C25.3156067,10.1020115 25.9522628,9.3987069 27.2574078,9.36673851 C26.1114268,13.3627874 22.9281463,15.4407328 19.7130331,16.9112787 C17.6757336,14.9931753 17.0072447,15.0251437 15.0654436,15.7604167 C9.87669642,16.6235632 2.30048891,23.4967672 1.18634075,28.8354885 C1.25000636,30.1461925 1.88666245,30.1142241 2.58698415,30.753592 C3.86029634,30.0502874 5.83393023,29.9543822 7.13907522,29.9224138 C11.0545102,29.7625718 14.9699452,29.6027299 18.08956,26.1821121 C19.3310394,24.1681034 20.540686,21.4827586 23.0873104,20.0761494 C21.3683389,26.7255747 26.1114268,31.1372126 26.3342564,36.4119971 C27.6394014,36.3480603 28.2760575,36.316092 28.2442247,35.6767241 C30.1223602,32.9594109 31.300174,29.6346983 33.1464766,26.2460489 C33.1464766,26.2460489 33.1146438,25.606681 33.082811,24.9353448 C31.618502,21.0352011 30.8226819,17.1350575 29.995029,12.5316092 C29.9313634,11.2209052 29.8995306,9.91020115 30.5043538,8.56752874 C31.7140004,5.88218391 32.8918142,3.19683908 34.1014608,0.543462644 C38.1123942,2.33369253 34.9291137,5.11494253 36.3297571,7.03304598 C37.0619116,9.62248563 39.7040344,10.1979167 40.4680217,12.7873563 C42.9191477,10.7733477 43.9696302,4.5075431 42.1233275,0 L39.2265423,0 C39.5448704,0.735272989 39.6403688,1.50251437 39.4175391,2.30172414 C40.086028,2.94109195 40.6908513,1.59841954 42.0596619,2.84518678 C42.0596619,3.51652299 41.4548386,4.8591954 40.8500154,6.20186782 C39.8313656,3.8362069 38.144227,2.20581897 36.9664132,0 L32.3824893,0 C31.6503348,1.24676724 30.7271835,2.55747126 29.6767009,3.99604885 M7.99856095,1.53448276 C8.95354509,1.18283046 9.7493652,0.671336207 10.3541885,2.05280237e-13 L6.05675986,2.05280237e-13 C6.21592389,1.02298851 6.66158315,1.59841954 7.99856095,1.53448276 M0.231356609,3.16487069 C1.34550477,2.33369253 2.2368233,1.08692529 3.28730586,2.37119352e-13 L0.58151746,2.37119352e-13 C0.295022218,0.895114943 -0.341633875,1.66235632 0.231356609,3.16487069" id="Fill-6" fill="#000000" mask="url(#mask-4)"></path>
                        </g>
                        <g id="Group-11" transform="translate(110.173337, 0.487518)">
                            <mask id="mask-6" fill="white">
                                <use xlink:href="#path-5"></use>
                            </mask>
                            <g id="Clip-10"></g>
                            <path d="M27.9173697,36.6677443 C27.1852152,34.7176724 28.4266946,33.3430316 29.0315179,32.0003592 C29.7318396,33.3110632 28.4903602,34.6537356 27.9173697,36.6677443 M28.9041866,28.0682471 C30.0820004,24.7115661 31.8964703,21.3548851 33.0424512,17.3588362 C33.901937,21.9303161 30.7186565,24.7115661 28.9041866,28.0682471 M31.132483,18.0941092 C30.4003285,16.1440374 32.9469528,14.7374282 32.2466311,12.7873563 C30.4003285,16.1440374 27.8855369,18.893319 28.0447009,22.825431 C26.6122247,19.5966236 30.145666,9.55854885 33.9337698,6.13793103 C34.7614227,10.7094109 34.2520978,14.6734914 31.132483,18.0941092 M31.9601359,6.20186782 C29.4771771,8.95114943 28.2993633,12.2758621 26.4530607,15.6325431 C27.5672088,10.3257902 29.986502,5.62643678 33.0424512,0.223778736 C33.8701042,4.1558908 33.8701042,4.1558908 31.9601359,6.20186782 M24.7340892,4.5075431 C23.6836067,11.7963362 24.6385908,18.9892241 26.1983982,26.1821121 C27.6308744,29.4428879 27.1215496,33.4069684 25.3070797,36.7636494 C24.7340892,38.777658 23.460777,40.1203305 23.5244426,41.4630029 C25.5299093,42.6778017 26.1665654,42.0064655 27.4398776,41.3031609 C33.7746057,35.7726293 38.7405233,28.9953305 42.369463,21.6106322 C42.9106207,18.2859195 44.7887562,16.2399425 44.6614249,12.9471983 C45.2662482,8.59949713 45.4254123,4.28376437 44.6932577,0 L42.8469551,0 C43.3881128,2.49353448 43.7064408,5.05100575 43.8019392,7.70438218 C43.4836112,16.3038793 39.8228386,23.0172414 35.52541,31.1052443 C34.7614227,27.8444684 36.6077254,25.1271552 35.2389148,23.2090517 C34.7295899,27.1731322 33.5836089,31.169181 31.132483,35.2291667 C30.4321613,34.5897989 30.4321613,33.950431 30.4003285,33.2790948 C32.1829655,28.5797414 33.9656026,23.9123563 35.0797507,19.2449713 C35.6527412,16.5915948 34.9524195,15.3128592 34.8569211,13.330819 C36.0347349,9.33477011 35.8755709,5.40265805 35.0797507,1.47054598 C34.9842523,0.991020115 34.8887539,0.479525862 34.8250883,0 L32.0556343,0 C30.8778205,2.0779454 28.9360194,3.74030172 28.0447009,5.69037356 C28.2675305,3.77227011 28.681357,1.85416667 29.2861803,0 L25.5299093,0 C25.0842501,1.56645115 24.6704236,2.94109195 24.7340892,4.5075431 M0,7.44863506 C7.28971227,5.5625 14.6112573,4.12392241 21.4871431,0 L13.84727,0 C12.9559515,1.7262931 11.23698,2.39762931 7.63987312,2.55747126 C8.81768689,1.59841954 9.83633664,0.79920977 10.8231536,0 L8.46752604,0 C7.73537153,0.639367816 7.03504983,1.27873563 6.33472813,1.95007184 C5.02958314,2.65337644 3.78810375,3.99604885 3.15144766,4.69935345 C3.4061101,3.1329023 3.85176936,1.56645115 4.42475985,0 L2.0372995,0 C1.08231536,2.39762931 0.381993656,4.92313218 0,7.44863506" id="Fill-9" fill="#000000" mask="url(#mask-6)"></path>
                        </g>
                        <g id="Group-14" transform="translate(262.827552, 85.803161)">
                            <mask id="mask-8" fill="white">
                                <use xlink:href="#path-7"></use>
                            </mask>
                            <g id="Clip-13"></g>
                            <path d="M1.384727,2.40562141 C1.44839261,2.46955819 1.51205822,2.50152658 1.57572383,2.53349497 L1.79855346,1.99003233 C1.67122224,2.11790589 1.54389103,2.24577945 1.384727,2.40562141" id="Fill-12" fill="#000000" mask="url(#mask-8)"></path>
                        </g>
                        <path d="M14.0382669,58.4781789 C12.5739578,53.906699 13.0514499,49.2712823 12.9241187,45.9785381 C15.4389103,43.2612249 15.311579,39.9684806 17.8900362,39.2012392 C18.6858563,43.1333513 17.5398754,47.1294001 18.3356955,51.0615122 C20.2774966,50.3262392 19.5771749,49.0155352 19.5135093,47.7048312 C20.0546669,45.0514547 19.2906796,41.7906789 19.8318373,38.4659662 C20.4366606,37.1552622 21.0096511,35.7806214 22.3147961,35.0773168 C26.4848935,41.5029634 24.925086,52.1164691 14.0382669,58.4781789 M30.30483,38.7217134 C26.3257295,37.5708513 24.8614204,33.6707076 22.8241209,31.1132364 C26.7713887,32.2640984 29.4453443,34.1502335 30.30483,38.7217134 M31.5463094,37.3790409 C30.7504893,34.0862967 29.3498459,31.5288254 25.4025781,30.345995 C26.0074014,29.0033226 26.6122247,28.3319864 27.2807136,28.300018 C29.9228364,29.5148168 32.7241232,34.0223599 31.5463094,37.3790409 M45.4572451,7.84024784 C44.1839329,8.54355244 44.2475985,10.5255927 44.3112641,11.8362967 C44.4067625,14.4577047 45.138917,17.0791128 45.2344154,19.7005208 C45.298081,20.9153197 45.3617466,22.6416128 47.3990461,23.3768858 C47.3672133,23.4408226 47.3672133,23.5047593 47.3672133,23.5686961 L48.0038694,23.5367277 C47.7810398,23.5047593 47.590043,23.4408226 47.3990461,23.3768858 C47.8128726,19.4767421 46.4122292,15.6405352 46.2530652,11.7403915 C46.8260557,9.75835129 46.7942229,8.44764727 48.0357022,7.07300647 C47.9720366,5.02702945 48.1312006,2.72530532 48.3858631,0.48751796 L45.5527435,0.48751796 C46.4122292,2.69333693 47.5582102,4.96309267 45.4572451,7.84024784 M26.8987199,1.31869612 C27.0897168,5.9221444 27.7582057,6.56151221 32.3421295,7.04103807 C34.9524195,6.91316451 36.9578862,7.52056394 38.9633529,8.73536279 C37.6900407,10.1100036 36.4167285,10.8133082 36.4485613,12.1240122 C36.5440598,14.1060524 35.2707476,14.809357 33.9656026,15.5126616 C31.4826438,18.2619432 28.2993633,21.0112249 27.1533824,25.0072737 C26.5167263,25.7105783 25.911903,26.3819145 24.5749252,25.7745151 C25.2752469,27.0532507 25.3070797,28.3959231 25.3707453,29.7066272 C23.3971114,29.1311961 22.0283008,27.8524605 20.1501654,29.8984375 C20.7231558,27.9163973 19.386178,27.2770295 20.0228341,26.6056932 C21.8691368,23.9203484 21.7736384,21.266972 22.3466289,18.6135955 C22.9196194,16.6315553 21.518976,14.6814835 19.5135093,13.4666846 C17.5080426,12.2199174 15.5025759,10.9731501 13.4971092,9.7263829 C12.8286203,9.11898348 11.4598097,7.84024784 10.1864975,8.54355244 C9.74083823,13.8503053 7.99003397,19.8283944 12.1282986,25.6146731 C8.24469641,26.4138829 5.66623923,27.1811243 3.05594925,27.2770295 C0.47749207,28.0442708 -0.127331219,29.3869432 0.604823289,31.3370151 C2.10096511,36.5478628 9.39067738,38.8815553 13.8154372,35.4289691 C7.28971227,35.6847162 3.97910058,34.4699174 3.15144766,29.8984375 C7.60804031,27.0852191 12.223797,27.564745 17.4762098,28.6836386 C11.3961441,23.6646013 9.86816945,17.7824174 11.5553081,10.4616559 C14.8659198,11.6444864 18.2083643,13.498653 19.6090077,16.0880927 C22.3466289,19.2849318 19.1951812,22.0342134 19.3225124,25.3269576 C15.9482351,22.8014547 17.762705,18.8054059 15.0569166,16.2479346 C13.3061123,21.6186243 18.0173674,25.358926 18.8450204,29.9623743 C15.6299071,31.4009519 12.3192954,30.2181214 9.07234933,30.9853628 C12.4466266,33.5108657 15.6617399,32.0403197 19.5771749,31.9124461 C18.3038627,33.2551185 17.0305505,33.9903915 17.762705,35.908495 C15.152415,36.0363685 14.5157589,36.7077047 12.7012891,40.0643858 C9.00868372,46.8097162 10.5684911,53.331268 12.1601314,60.5241559 C12.1601314,60.5241559 12.1919642,61.1635237 12.8286203,61.1635237 C21.837304,56.8477909 26.8350543,50.7098599 26.4212279,40.1922593 C28.3948618,40.7676904 29.7636724,42.046426 32.3102967,39.9684806 C34.1884322,37.9225036 34.0929338,35.2691272 33.3289465,32.6796875 C31.9283031,30.0902478 31.1643158,27.5008082 27.8537041,26.3179777 C32.1192999,18.2299749 39.0906841,12.6994432 44.0566017,5.9221444 C40.8733212,7.36072198 37.5627095,6.17789152 34.2520978,5.63442888 C29.6045083,4.77128233 28.5540258,3.78026221 28.5540258,0.48751796 L26.8668871,0.48751796 C26.8668871,0.775233477 26.8987199,1.0309806 26.8987199,1.31869612" id="Fill-15" fill="#000000"></path>
                        <g id="Group-19" transform="translate(0.000000, 0.311692)">
                            <mask id="mask-10" fill="white">
                                <use xlink:href="#path-9"></use>
                            </mask>
                            <g id="Clip-18"></g>
                            <path d="M0.827652921,2.66936063 C3.31061168,2.18983477 5.28424557,1.32668822 6.87588581,0.175826149 L0,0.175826149 C0.190996828,1.07094109 0.445659265,1.87015086 0.827652921,2.66936063" id="Fill-17" fill="#000000" mask="url(#mask-10)"></path>
                        </g>
                        <path d="M50.8688218,12.8912536 C52.3649637,17.4307651 50.518661,20.8194145 47.3672133,23.5686961 L48.0038694,23.5367277 C47.3990461,24.8794001 46.8260557,26.2220726 44.8842546,26.9573455 C43.3562799,21.7464978 39.918337,16.5995869 42.3057974,10.5895295 C39.759173,12.6674749 39.2180153,15.9921875 39.9820027,18.5816272 C40.7778228,22.5137392 42.8787879,25.7105783 43.0061191,29.6746588 C43.0379519,30.3140266 43.7064408,30.3140266 43.7064408,30.9533944 C48.1312006,26.829472 51.9193044,22.737518 53.0016198,17.4307651 C53.5109446,13.4347162 51.3463139,8.25583693 48.0357022,7.07300647 C48.0993678,9.0550467 50.1366673,10.9411818 50.8688218,12.8912536" id="Fill-20" fill="#000000"></path>
                        <g id="Group-24" transform="translate(166.055826, 0.000000)">
                            <mask id="mask-12" fill="white">
                                <use xlink:href="#path-11"></use>
                            </mask>
                            <g id="Clip-23"></g>
                            <path d="M1.41655981,1.7342852 C1.67122224,1.44656968 1.83038627,0.999012213 1.95771749,0.48751796 L1.22556298,0.48751796 C1.25739578,0.90310704 1.32106139,1.31869612 1.41655981,1.7342852" id="Fill-22" fill="#000000" mask="url(#mask-12)"></path>
                        </g>
                        <g id="Group-27" transform="translate(33.710940, 0.392992)">
                            <mask id="mask-14" fill="white">
                                <use xlink:href="#path-13"></use>
                            </mask>
                            <g id="Clip-26"></g>
                            <path d="M0,0.0945256841 C2.57845718,2.97168086 7.44887629,3.96270097 10.2183303,1.56507166 C7.89453556,1.27735614 5.76173764,0.7338935 3.59710693,0.0945256841 L0,0.0945256841 Z" id="Fill-25" fill="#000000" mask="url(#mask-14)"></path>
                        </g>
                        <path d="M167.727048,60.3643139 C171.578817,58.2544001 175.462419,57.423222 178.6457,55.3452766 C174.061776,54.8337823 170.910328,58.2544001 167.727048,60.3643139" id="Fill-28" fill="#000000"></path>
                        <path d="M121.792311,21.3309088 C125.64408,19.1890266 129.559515,19.0291846 131.373985,15.6725036 C128.158872,17.1110812 124.943758,18.5496588 121.792311,21.3309088" id="Fill-30" fill="#000000"></path>
                        <path d="M177.690716,64.5841415 C180.969494,64.456268 183.484286,62.3783226 186.062743,60.9717134 C182.083643,59.8208513 180.269173,63.1775323 177.690716,64.5841415" id="Fill-32" fill="#000000"></path>
                        <path d="M182.433804,69.0277478 C184.980428,66.9498024 188.227374,66.1505927 190.105509,64.1046157 C187.463387,63.561153 183.006794,66.342403 182.433804,69.0277478" id="Fill-34" fill="#000000"></path>
                        <path d="M122.779128,12.7314116 C126.026074,11.9322019 129.241187,11.1329921 131.119322,8.44764727 C128.509032,9.21488865 125.994241,11.2608657 122.779128,12.7314116" id="Fill-36" fill="#000000"></path>
                        <path d="M168.841196,55.0575611 C172.056309,54.2583513 173.297789,52.2443427 176.512902,50.8057651 C173.234123,50.2623024 170.655666,51.0295438 168.841196,55.0575611" id="Fill-38" fill="#000000"></path>
                        <path d="M122.588131,25.2310524 C127.776878,23.7285381 129.686846,22.9932651 130.928326,20.9792565 C127.681379,21.7464978 125.102922,22.5137392 122.588131,25.2310524" id="Fill-40" fill="#000000"></path>
                        <path d="M120.328002,17.4307651 C120.328002,17.4307651 120.359834,18.0701329 120.996491,18.0701329 C123.574948,16.6315553 126.821894,15.8643139 130.037007,14.4257364 C126.089739,13.9142421 123.543115,15.9921875 120.328002,17.4307651" id="Fill-42" fill="#000000"></path>
                        <path d="M173.074959,63.4652478 C175.653416,62.0266703 178.868529,61.2594289 180.078176,58.5740841 C177.467886,58.6699892 175.621583,61.3873024 173.074959,63.4652478" id="Fill-44" fill="#000000"></path>
                        <path d="M188.322872,69.4433369 C191.601651,69.3154634 194.180108,68.548222 196.058244,65.8628772 C192.779465,65.9907507 190.933162,68.6760955 188.322872,69.4433369" id="Fill-46" fill="#000000"></path>
                        <path d="M127.936042,28.3319864 C129.84601,26.9253772 132.488133,27.5008082 133.029291,24.1760955 C129.718679,23.6326329 129.177521,26.3179777 127.936042,28.3319864" id="Fill-48" fill="#000000"></path>
                        <path d="M194.975929,71.8089978 C196.91773,71.0737249 199.496187,70.3064835 200.705833,68.2924749 C198.095543,68.38838 196.185575,69.7949892 194.975929,71.8089978" id="Fill-50" fill="#000000"></path>
                        <path d="M168.650199,50.4541128 C171.292322,50.9975754 172.565634,49.654903 173.807113,48.2802622 C171.83348,47.7048312 169.891678,48.4081358 168.650199,50.4541128" id="Fill-52" fill="#000000"></path>
                        <path d="M123.288452,8.73536279 C125.230254,8.67142601 127.840544,8.57552083 128.381701,5.9221444 C126.471733,6.65741739 124.529932,7.39269037 123.288452,8.73536279" id="Fill-54" fill="#000000"></path>
                        <path d="M204.907764,75.3894576 C207.486221,74.6222162 208.759533,73.9189116 210.032845,72.5442708 C208.091044,73.2795438 206.11741,72.7041128 204.907764,75.3894576" id="Fill-56" fill="#000000"></path>
                        <path d="M132.010641,32.1042565 C132.647297,31.4329203 133.25212,30.7615841 132.551799,28.8115122 C131.246654,29.5148168 130.64183,30.8574892 132.010641,32.1042565" id="Fill-58" fill="#000000"></path>
                        <path d="M169.828013,46.4580639 C170.464669,46.4260955 170.432836,45.7547593 170.432836,45.1153915 C169.127691,45.1473599 169.127691,45.1473599 169.828013,46.4580639" id="Fill-60" fill="#000000"></path>
                        <path d="M249.505523,10.3977191 C248.168545,9.79031968 246.831567,9.18292026 246.767902,7.20088003 C246.099413,7.23284842 245.430924,6.62544899 244.762435,6.62544899 C243.45729,6.68938578 242.788801,6.05001796 241.451823,5.44261853 C243.552788,8.67142601 246.799735,8.54355244 249.505523,10.3977191" id="Fill-62" fill="#000000"></path>
                        <path d="M263.511957,17.750449 C262.111314,15.8323455 260.201345,16.5676185 258.864368,15.9602191 C259.596522,17.9102909 262.143146,16.5036818 263.511957,17.750449" id="Fill-64" fill="#000000"></path>
                        <path d="M238.204877,5.5704921 C240.178511,6.14592313 240.178511,6.14592313 241.451823,5.44261853 C240.815167,5.47458693 239.478189,4.8671875 238.204877,5.5704921" id="Fill-66" fill="#000000"></path>
                    </g>
                </g>
            </g>
        </g>
    </g>
</svg>